<?xml version="1.0" encoding="iso-8859-1"?>
<!-- Generator: Adobe Illustrator 19.0.0, SVG Export Plug-In . SVG Version: 6.00 Build 0)  -->
<svg version="1.1" id="Layer_1" xmlns="http://www.w3.org/2000/svg" xmlns:xlink="http://www.w3.org/1999/xlink" x="0px" y="0px"
	 viewBox="0 0 512.035 512.035" style="enable-background:new 0 0 512.035 512.035;" xml:space="preserve">
<g transform="translate(1 1)">
	<polygon style="fill:#FFE100;" points="447,127.035 327.533,7.568 63,7.568 63,502.501 447,502.501 	"/>
	<polygon style="fill:#FFFFFF;" points="63,502.501 88.6,502.501 88.6,7.568 63,7.568 	"/>
	<polygon style="fill:#FFA800;" points="327.533,7.568 319,7.568 421.4,127.035 421.4,502.501 447,502.501 447,127.035 	"/>
	<polygon style="fill:#FDCC00;" points="327.533,7.568 327.533,127.035 447,127.035 	"/>
	<path d="M447,511.035H63c-5.12,0-8.533-3.413-8.533-8.533V7.568c0-5.12,3.413-8.533,8.533-8.533h264.533
		c2.56,0,4.267,0.853,5.973,2.56l119.467,119.467c1.707,1.707,2.56,3.413,2.56,5.973v375.467
		C455.533,507.621,452.12,511.035,447,511.035z M71.533,493.968h366.933v-363.52L324.12,16.101H71.533V493.968z"/>
	<path d="M447,135.568H327.533c-5.12,0-8.533-3.413-8.533-8.533V7.568c0-3.413,1.707-6.827,5.12-7.68
		c3.413-1.707,6.827-0.853,9.387,1.707l119.467,119.467c2.56,2.56,3.413,5.973,1.707,9.387
		C453.827,133.861,450.413,135.568,447,135.568z M336.067,118.501h90.453l-90.453-90.453V118.501z"/>
	<path d="M353.133,459.835h-204.8c-5.12,0-8.533-3.413-8.533-8.533s3.413-8.533,8.533-8.533h204.8c5.12,0,8.533,3.413,8.533,8.533
		S358.253,459.835,353.133,459.835z"/>
	<path d="M327.533,425.701H165.4c-5.12,0-8.533-3.413-8.533-8.533c0-5.12,3.413-8.533,8.533-8.533h162.133
		c5.12,0,8.533,3.413,8.533,8.533C336.067,422.288,332.653,425.701,327.533,425.701z"/>
	<path d="M250.733,365.968c-5.12,0-8.533-3.413-8.533-8.533v-204.8c0-5.12,3.413-8.533,8.533-8.533c5.12,0,8.533,3.413,8.533,8.533
		v204.8C259.267,362.555,255.853,365.968,250.733,365.968z"/>
	<path d="M250.733,348.901c-21.333,0-39.253-7.68-49.493-20.48c-2.56-3.413-2.56-9.387,1.707-11.947
		c3.413-2.56,9.387-2.56,11.947,1.707c6.827,8.533,20.48,13.653,35.84,13.653c20.48,0,42.667-12.8,42.667-34.133
		c0-20.48-22.187-34.133-42.667-34.133c-29.013,0-59.733-19.627-59.733-51.2s30.72-51.2,59.733-51.2
		c21.333,0,39.253,6.827,49.493,20.48c2.56,3.413,2.56,9.387-1.707,11.947c-3.413,2.56-9.387,2.56-11.947-1.707
		c-6.827-8.533-19.627-13.653-35.84-13.653c-20.48,0-42.667,13.653-42.667,34.133c0,21.333,22.187,34.133,42.667,34.133
		c29.013,0,59.733,19.627,59.733,51.2S279.747,348.901,250.733,348.901z"/>
	<path d="M293.4,220.901c-5.12,0-8.533-3.413-8.533-8.533v-51.2c0-5.12,3.413-8.533,8.533-8.533c5.12,0,8.533,3.413,8.533,8.533
		v51.2C301.933,217.488,298.52,220.901,293.4,220.901z"/>
	<path d="M208.067,357.435c-5.12,0-8.533-3.413-8.533-8.533v-51.2c0-5.12,3.413-8.533,8.533-8.533c5.12,0,8.533,3.413,8.533,8.533
		v51.2C216.6,354.021,213.187,357.435,208.067,357.435z"/>
</g>
<g>
</g>
<g>
</g>
<g>
</g>
<g>
</g>
<g>
</g>
<g>
</g>
<g>
</g>
<g>
</g>
<g>
</g>
<g>
</g>
<g>
</g>
<g>
</g>
<g>
</g>
<g>
</g>
<g>
</g>
</svg>
