<?xml version="1.0" encoding="iso-8859-1"?>
<!-- Generator: Adobe Illustrator 19.0.0, SVG Export Plug-In . SVG Version: 6.00 Build 0)  -->
<svg version="1.1" id="Layer_1" xmlns="http://www.w3.org/2000/svg" xmlns:xlink="http://www.w3.org/1999/xlink" x="0px" y="0px"
	 viewBox="0 0 512 512" style="enable-background:new 0 0 512 512;" xml:space="preserve">
<rect x="64" y="192" style="fill:#788F5D;" width="435.2" height="204.8"/>
<rect x="12.8" y="115.2" style="fill:#A0BF7C;" width="435.2" height="204.8"/>
<path style="fill:#FEDEA1;" d="M230.4,268.8c20.813,0,38.4-23.45,38.4-51.2s-17.587-51.2-38.4-51.2S192,189.85,192,217.6
	S209.587,268.8,230.4,268.8z"/>
<g>
	<path style="fill:#573A32;" d="M486.4,179.2h-25.6V128c0-14.14-11.46-25.6-25.6-25.6H25.6C11.46,102.4,0,113.86,0,128v179.2
		c0,14.14,11.46,25.6,25.6,25.6h25.6V384c0,14.14,11.46,25.6,25.6,25.6h409.6c14.14,0,25.6-11.46,25.6-25.6V204.8
		C512,190.66,500.54,179.2,486.4,179.2z M25.6,307.2V128h409.6v179.2H25.6z M486.4,384H76.8v-51.2h358.4
		c14.14,0,25.6-11.46,25.6-25.6V204.8h25.6V384z"/>
	<path style="fill:#573A32;" d="M230.4,153.6c-28.279,0-51.2,28.655-51.2,64s22.921,64,51.2,64s51.2-28.655,51.2-64
		S258.679,153.6,230.4,153.6z M230.4,256c-13.636,0-25.6-17.946-25.6-38.4s11.964-38.4,25.6-38.4s25.6,17.946,25.6,38.4
		S244.036,256,230.4,256z"/>
</g>
<g>
</g>
<g>
</g>
<g>
</g>
<g>
</g>
<g>
</g>
<g>
</g>
<g>
</g>
<g>
</g>
<g>
</g>
<g>
</g>
<g>
</g>
<g>
</g>
<g>
</g>
<g>
</g>
<g>
</g>
</svg>
