<svg id="svg" version="1.1" xmlns="http://www.w3.org/2000/svg" xmlns:xlink="http://www.w3.org/1999/xlink" width="400" height="320" viewBox="0, 0, 400,320"><g id="svgg"><path id="path0" d="M195.500 69.416 C 194.537 69.531,193.600 69.671,193.417 69.727 C 193.233 69.784,191.096 70.019,188.667 70.250 C 186.237 70.480,183.762 70.784,183.167 70.925 C 182.571 71.065,181.783 71.244,181.417 71.322 C 179.594 71.710,173.504 74.123,173.361 74.514 C 173.331 74.598,173.173 74.667,173.012 74.667 C 172.850 74.667,172.545 74.817,172.333 75.000 C 172.122 75.183,171.882 75.333,171.800 75.333 C 171.718 75.333,171.199 75.633,170.647 76.000 C 170.095 76.367,169.617 76.667,169.585 76.667 C 169.412 76.667,165.359 79.553,165.167 79.813 C 165.121 79.875,164.746 80.186,164.333 80.504 C 162.383 82.010,159.694 84.562,156.750 87.701 C 155.290 89.257,155.239 89.316,153.667 91.247 C 153.071 91.978,152.452 92.724,152.291 92.903 C 152.026 93.201,150.571 95.116,148.990 97.250 C 147.970 98.628,143.550 105.278,143.355 105.729 C 143.320 105.809,143.151 106.016,142.979 106.188 C 142.590 106.576,142.591 106.475,142.983 104.583 C 143.154 103.758,143.347 102.708,143.413 102.250 C 143.478 101.792,143.589 101.342,143.660 101.250 C 143.730 101.158,143.837 100.302,143.897 99.347 C 143.956 98.392,144.066 97.530,144.141 97.431 C 144.215 97.331,144.411 96.875,144.575 96.417 C 144.968 95.326,147.148 90.955,148.005 89.542 C 148.186 89.244,148.465 88.777,148.625 88.505 C 148.785 88.233,149.387 87.277,149.962 86.380 C 150.537 85.484,151.100 84.603,151.212 84.423 C 151.325 84.242,151.698 83.702,152.042 83.221 C 152.385 82.741,152.667 82.307,152.667 82.257 C 152.667 82.155,152.812 81.982,154.070 80.585 C 154.565 80.035,154.935 79.529,154.892 79.460 C 154.754 79.237,154.089 79.324,153.454 79.648 C 153.114 79.821,152.579 80.011,152.264 80.070 C 151.949 80.129,151.665 80.254,151.634 80.347 C 151.603 80.441,151.316 80.583,150.997 80.662 C 150.678 80.742,149.817 81.044,149.083 81.335 C 148.350 81.626,147.487 81.919,147.167 81.986 C 146.846 82.053,146.396 82.215,146.167 82.346 C 145.661 82.634,142.943 82.638,137.179 82.357 C 133.169 82.162,132.667 82.217,132.667 82.847 C 132.667 82.918,132.367 83.428,132.000 83.980 C 131.633 84.532,131.333 85.062,131.333 85.159 C 131.333 85.255,131.257 85.333,131.163 85.333 C 131.069 85.333,130.902 85.540,130.791 85.792 C 130.681 86.044,130.546 86.287,130.492 86.333 C 130.439 86.379,130.142 86.792,129.833 87.250 C 129.050 88.411,127.856 89.869,127.462 90.145 C 127.115 90.388,126.972 90.396,117.908 90.646 L 113.233 90.775 111.908 91.760 C 108.383 94.379,106.964 95.655,105.333 97.669 C 104.484 98.717,101.713 101.307,100.167 102.497 C 99.754 102.815,99.379 103.117,99.333 103.169 C 99.287 103.222,98.808 103.620,98.268 104.055 C 96.189 105.731,95.056 107.855,93.809 112.417 C 93.533 113.425,93.164 114.650,92.987 115.140 C 92.811 115.629,92.667 116.195,92.667 116.398 C 92.667 116.601,92.599 116.838,92.517 116.925 C 92.262 117.194,91.066 121.621,91.209 121.765 C 91.250 121.806,91.726 121.727,92.267 121.591 C 97.263 120.329,104.881 120.408,107.917 121.752 C 108.192 121.874,108.590 122.024,108.802 122.085 C 111.755 122.936,115.373 126.514,117.334 130.521 C 117.799 131.472,118.259 132.392,118.356 132.566 C 118.717 133.210,119.333 135.021,119.333 135.437 L 119.333 135.866 118.847 135.558 C 117.788 134.887,115.243 132.239,113.167 129.648 C 112.274 128.534,109.944 126.242,109.401 125.943 C 104.727 123.374,102.594 123.539,96.083 126.975 C 95.350 127.362,94.638 127.743,94.500 127.823 C 94.362 127.902,93.612 128.322,92.833 128.757 C 92.054 129.192,91.379 129.594,91.333 129.650 C 91.287 129.707,90.969 129.901,90.625 130.081 C 90.281 130.262,90.000 130.467,90.000 130.538 C 90.000 130.609,89.904 130.667,89.787 130.667 C 89.670 130.667,89.454 130.798,89.307 130.958 C 89.160 131.119,88.787 131.434,88.478 131.658 C 87.569 132.319,85.333 134.659,85.333 134.949 C 85.333 135.011,85.189 135.217,85.012 135.406 C 83.529 136.995,82.167 141.759,82.167 145.356 C 82.167 147.776,83.210 154.661,83.666 155.250 C 83.737 155.342,83.849 155.679,83.915 156.000 C 84.132 157.056,85.039 160.080,85.188 160.242 C 85.268 160.329,85.333 160.580,85.333 160.800 C 85.333 161.020,85.444 161.436,85.578 161.725 C 85.713 162.014,86.092 163.112,86.420 164.167 C 86.749 165.221,87.088 166.155,87.175 166.242 C 87.262 166.329,87.333 166.505,87.333 166.633 C 87.333 166.940,88.816 170.655,89.107 171.079 C 89.232 171.260,89.333 171.497,89.333 171.607 C 89.333 172.105,91.506 176.319,92.802 178.333 C 94.464 180.916,97.942 184.352,100.480 185.917 C 100.628 186.008,100.787 186.128,100.833 186.182 C 101.073 186.465,105.201 188.379,106.226 188.682 C 106.881 188.876,107.492 189.092,107.583 189.161 C 107.675 189.231,108.222 189.335,108.799 189.392 C 109.376 189.449,110.014 189.591,110.216 189.707 C 110.746 190.010,122.643 189.984,123.558 189.678 C 124.648 189.313,131.613 189.337,132.250 189.707 C 132.525 189.867,132.825 190.001,132.917 190.004 C 133.639 190.032,134.333 191.385,134.333 192.767 C 134.333 194.723,135.010 195.056,135.400 193.292 C 135.547 192.627,135.822 191.408,136.012 190.583 C 136.202 189.758,136.435 188.633,136.531 188.083 C 136.626 187.533,136.768 186.933,136.846 186.750 C 136.970 186.457,137.567 184.184,138.027 182.257 C 138.113 181.894,138.246 181.519,138.322 181.423 C 138.397 181.328,138.515 181.063,138.583 180.833 C 139.053 179.245,139.989 179.643,140.864 181.803 C 141.351 183.003,141.430 183.750,141.166 184.668 C 141.074 184.988,140.910 186.238,140.801 187.446 C 140.470 191.106,141.041 195.322,142.264 198.250 C 142.379 198.525,142.605 199.088,142.767 199.500 C 142.929 199.912,143.194 200.475,143.354 200.750 C 143.515 201.025,143.915 201.723,144.242 202.301 C 144.569 202.878,144.912 203.441,145.003 203.551 C 145.094 203.660,145.549 204.237,146.014 204.833 C 147.209 206.366,150.672 209.747,152.250 210.922 C 153.669 211.978,153.812 212.075,154.678 212.563 C 154.984 212.736,155.336 212.979,155.462 213.105 C 155.588 213.231,155.798 213.333,155.929 213.333 C 156.060 213.333,156.167 213.390,156.167 213.459 C 156.167 213.529,156.410 213.691,156.708 213.821 C 157.006 213.951,157.925 214.369,158.750 214.749 C 159.575 215.129,161.000 215.645,161.917 215.895 C 162.833 216.146,163.714 216.421,163.873 216.508 C 164.032 216.595,164.444 216.667,164.789 216.667 C 165.134 216.667,165.942 216.778,166.583 216.914 C 167.961 217.206,172.024 217.251,173.352 216.990 C 173.846 216.893,174.925 216.748,175.750 216.668 C 177.804 216.470,184.135 215.280,184.683 214.990 C 184.829 214.912,185.392 214.771,185.933 214.675 C 187.553 214.389,188.581 214.061,188.628 213.815 C 188.667 213.615,175.147 200.028,171.396 196.498 C 169.496 194.709,169.665 193.993,171.750 195.000 C 172.117 195.177,172.524 195.325,172.654 195.328 C 172.873 195.333,175.424 196.489,176.000 196.844 C 176.137 196.929,176.850 197.316,177.583 197.706 C 178.317 198.095,179.118 198.527,179.365 198.665 C 181.330 199.767,182.072 200.215,182.281 200.424 C 182.415 200.558,182.587 200.667,182.665 200.667 C 182.743 200.667,183.769 201.301,184.945 202.076 C 189.402 205.013,190.020 205.453,193.340 208.042 C 194.251 208.752,195.073 209.333,195.165 209.333 C 195.258 209.333,195.333 209.395,195.333 209.471 C 195.333 209.547,195.809 209.995,196.391 210.467 C 197.883 211.677,199.699 213.489,201.252 215.316 C 202.733 217.059,202.632 216.947,205.427 219.935 C 206.533 221.116,207.770 222.455,208.177 222.909 C 208.584 223.362,209.714 224.562,210.688 225.575 C 211.662 226.588,213.387 228.391,214.521 229.581 C 218.826 234.100,229.104 244.723,233.916 249.627 C 235.748 251.496,238.021 253.838,238.967 254.832 L 240.686 256.639 241.718 256.727 C 242.285 256.775,243.688 256.927,244.833 257.064 C 249.040 257.568,249.222 257.491,247.536 255.916 C 244.892 253.447,240.000 247.891,240.000 247.359 C 240.000 247.268,239.934 247.169,239.852 247.139 C 239.698 247.081,237.537 243.886,237.165 243.167 C 237.047 242.938,236.902 242.713,236.842 242.667 C 236.719 242.572,234.889 238.886,234.277 237.500 C 234.054 236.996,233.668 235.908,233.419 235.083 C 233.170 234.258,232.909 233.508,232.839 233.417 C 232.769 233.325,232.665 232.950,232.608 232.583 C 232.550 232.217,232.389 231.392,232.250 230.750 C 231.562 227.586,231.835 221.749,232.800 219.000 C 232.848 218.862,232.901 218.713,232.917 218.667 C 232.933 218.621,232.992 218.471,233.050 218.333 C 233.107 218.196,233.344 217.569,233.576 216.941 C 233.948 215.934,234.396 214.959,234.852 214.167 C 234.931 214.029,235.119 213.692,235.270 213.417 C 235.583 212.848,236.693 211.126,236.828 211.000 C 236.877 210.954,237.255 210.467,237.667 209.917 C 238.079 209.367,238.454 208.879,238.501 208.833 C 238.547 208.787,238.808 208.450,239.079 208.083 C 239.719 207.221,239.864 207.035,240.167 206.696 C 240.304 206.542,240.788 205.929,241.241 205.333 C 241.694 204.737,242.281 204.025,242.544 203.750 L 243.024 203.250 242.658 204.250 C 242.457 204.800,242.226 205.321,242.146 205.408 C 242.066 205.495,242.000 205.702,242.000 205.867 C 242.000 206.033,241.850 206.448,241.667 206.790 C 241.483 207.132,241.333 207.545,241.333 207.708 C 241.333 207.871,241.256 208.135,241.161 208.294 C 240.645 209.164,239.221 214.018,238.558 217.167 C 237.231 223.473,237.829 231.776,239.772 234.013 C 239.897 234.158,240.000 234.358,240.000 234.457 C 240.000 236.164,246.689 242.000,248.646 242.000 C 248.804 242.000,249.005 242.072,249.093 242.160 C 249.891 242.957,257.523 242.944,258.408 242.143 C 258.495 242.064,258.708 242.000,258.880 242.000 C 259.177 242.000,261.602 241.205,262.500 240.813 C 263.313 240.458,264.421 239.948,264.750 239.777 C 264.933 239.682,265.383 239.457,265.750 239.278 C 266.466 238.928,269.529 237.032,269.667 236.853 C 269.712 236.793,270.313 236.371,271.000 235.914 C 271.688 235.458,272.325 235.028,272.417 234.960 C 273.125 234.430,277.186 231.183,277.583 230.828 C 280.251 228.448,282.679 226.085,283.919 224.661 C 284.743 223.716,285.548 222.827,285.708 222.684 C 285.869 222.542,286.000 222.330,286.000 222.213 C 286.000 222.096,286.060 222.000,286.132 222.000 C 286.535 222.000,289.607 217.317,290.534 215.292 C 290.733 214.856,290.957 214.500,291.031 214.500 C 291.106 214.500,291.167 214.369,291.168 214.208 C 291.168 214.048,291.279 213.705,291.415 213.445 C 291.793 212.720,292.667 209.773,292.667 209.223 C 292.667 208.954,292.740 208.660,292.831 208.569 C 293.080 208.320,293.217 204.722,293.021 203.583 C 292.656 201.464,292.514 200.877,292.079 199.678 C 290.767 196.064,287.718 192.137,283.917 189.164 C 282.158 187.789,280.692 186.500,280.887 186.500 C 281.021 186.500,282.681 187.379,283.667 187.973 C 283.987 188.167,284.512 188.479,284.833 188.667 C 285.154 188.855,285.642 189.156,285.917 189.336 C 286.192 189.516,286.604 189.756,286.833 189.870 C 287.063 189.984,287.287 190.121,287.333 190.176 C 287.379 190.230,287.679 190.419,288.000 190.596 C 288.321 190.772,288.621 190.959,288.667 191.010 C 288.712 191.062,289.638 191.662,290.723 192.344 C 291.808 193.026,293.008 193.786,293.390 194.033 C 293.771 194.281,294.328 194.609,294.627 194.762 L 295.171 195.040 295.679 194.478 C 295.958 194.169,296.313 193.729,296.468 193.500 C 296.847 192.940,297.353 192.336,297.708 192.019 C 297.869 191.876,298.000 191.696,298.000 191.618 C 298.000 191.346,300.771 188.732,303.333 186.587 C 306.697 183.770,310.511 179.963,311.250 178.684 C 311.342 178.526,311.616 178.138,311.859 177.823 C 312.443 177.065,312.874 176.329,313.559 174.917 C 314.458 173.063,314.667 172.554,314.667 172.216 C 314.667 172.042,314.734 171.829,314.816 171.742 C 315.518 170.995,315.533 163.362,314.836 161.750 C 314.757 161.567,314.644 161.006,314.585 160.504 C 314.527 160.002,314.415 159.515,314.338 159.421 C 314.261 159.327,314.119 158.837,314.022 158.333 C 313.726 156.781,312.977 153.598,312.867 153.420 C 312.810 153.327,312.708 152.914,312.640 152.501 C 312.540 151.890,311.610 147.970,311.493 147.667 C 311.475 147.621,311.470 147.525,311.482 147.454 C 311.517 147.235,311.126 145.760,310.984 145.575 C 310.909 145.479,310.774 144.992,310.684 144.492 C 310.042 140.961,309.166 138.632,307.864 137.000 C 306.952 135.857,305.775 134.676,305.542 134.671 C 305.427 134.669,305.333 134.598,305.333 134.515 C 305.333 134.142,302.262 132.433,300.667 131.918 C 300.162 131.756,299.675 131.568,299.583 131.501 C 299.492 131.433,298.980 131.336,298.447 131.283 C 297.913 131.231,297.358 131.090,297.213 130.969 C 297.004 130.796,295.472 130.748,289.932 130.739 C 281.391 130.725,280.301 130.537,281.083 129.212 C 281.345 128.769,281.565 128.592,282.917 127.738 C 283.791 127.186,285.176 126.834,286.167 126.912 C 286.671 126.952,288.321 127.070,289.833 127.174 C 291.346 127.278,293.258 127.424,294.083 127.499 C 294.908 127.574,295.616 127.603,295.656 127.564 C 295.803 127.422,295.144 118.032,294.909 116.908 C 294.776 116.271,294.667 115.481,294.667 115.153 C 294.667 114.824,294.624 114.513,294.571 114.460 C 294.519 114.408,294.225 113.634,293.918 112.741 C 293.611 111.848,293.215 110.922,293.039 110.684 C 292.863 110.445,292.584 109.990,292.419 109.671 C 291.696 108.273,288.288 105.374,286.479 104.620 C 286.146 104.481,285.823 104.285,285.761 104.184 C 285.698 104.083,285.481 104.000,285.277 104.000 C 285.074 104.000,284.759 103.896,284.577 103.769 C 284.396 103.642,283.461 103.298,282.499 103.005 C 281.537 102.712,280.622 102.405,280.466 102.323 C 280.309 102.240,279.859 102.128,279.466 102.074 C 279.072 102.019,278.600 101.911,278.417 101.834 C 277.391 101.404,275.761 101.212,275.583 101.501 C 275.431 101.746,274.833 105.048,274.674 106.518 C 274.599 107.215,274.462 107.928,274.371 108.101 C 274.280 108.275,274.151 108.746,274.084 109.149 C 273.776 111.007,272.283 114.551,270.356 118.000 C 269.972 118.688,269.528 119.513,269.370 119.833 C 269.035 120.516,269.007 120.556,268.322 121.375 C 267.918 121.858,267.678 122.000,267.266 122.000 C 266.201 122.000,266.087 120.342,266.774 114.833 C 267.008 112.954,267.257 110.554,267.327 109.500 C 267.398 108.446,267.553 106.173,267.673 104.449 C 267.852 101.879,267.852 100.845,267.675 98.699 C 267.557 97.261,267.401 95.371,267.329 94.500 C 266.662 86.396,265.339 84.172,259.500 81.328 C 258.537 80.859,257.551 80.369,257.308 80.238 C 257.064 80.107,256.723 80.000,256.549 80.000 C 256.376 80.000,256.162 79.937,256.075 79.860 C 255.849 79.661,253.269 78.667,252.977 78.667 C 252.843 78.667,252.662 78.601,252.575 78.520 C 252.430 78.385,250.760 77.855,247.750 76.987 C 247.108 76.802,246.327 76.569,246.014 76.471 C 244.862 76.108,242.391 75.475,241.508 75.315 C 241.008 75.225,240.510 75.077,240.401 74.987 C 240.291 74.896,239.800 74.781,239.309 74.731 C 238.818 74.681,238.267 74.572,238.083 74.489 C 237.778 74.351,234.811 73.669,233.000 73.322 C 232.588 73.243,231.575 73.029,230.750 72.846 C 229.151 72.492,224.356 71.578,222.833 71.338 C 222.329 71.259,220.829 71.000,219.500 70.764 C 216.271 70.191,214.614 70.272,213.063 71.081 C 212.799 71.219,212.500 71.332,212.398 71.332 C 211.117 71.339,206.437 75.271,205.262 77.327 C 204.357 78.909,204.000 79.579,204.000 79.692 C 204.000 79.765,203.850 80.071,203.667 80.371 C 203.484 80.671,203.334 81.070,203.334 81.258 C 203.334 81.446,203.258 81.676,203.165 81.768 C 202.058 82.876,201.527 90.303,201.970 98.500 C 202.224 103.206,202.013 104.370,201.337 101.985 C 201.244 101.655,201.018 101.213,200.834 101.001 C 200.650 100.789,200.500 100.557,200.500 100.486 C 200.500 100.415,200.396 100.253,200.269 100.126 C 200.054 99.911,199.476 98.964,198.528 97.275 C 198.315 96.895,197.880 95.946,197.562 95.167 C 197.244 94.388,196.922 93.600,196.846 93.417 C 193.950 86.392,195.471 77.386,200.664 70.817 C 201.414 69.868,201.479 69.590,201.011 69.339 C 200.589 69.113,197.708 69.154,195.500 69.416 M190.289 121.378 L 190.917 122.006 190.961 145.461 C 191.008 170.615,191.046 169.485,190.132 170.253 L 189.641 170.667 185.090 170.667 L 180.540 170.667 180.019 170.134 C 179.732 169.841,179.423 169.334,179.333 169.009 C 179.100 168.171,179.109 123.298,179.342 122.459 C 179.802 120.802,180.241 120.680,185.622 120.720 L 189.661 120.750 190.289 121.378 M239.540 128.174 C 240.530 128.990,240.498 128.291,240.498 149.250 C 240.498 169.859,240.512 169.513,239.649 170.239 L 239.141 170.667 234.490 170.667 L 229.839 170.667 229.327 170.208 C 228.505 169.472,228.508 169.540,228.508 149.250 C 228.508 128.582,228.488 129.033,229.434 128.208 L 230.056 127.667 234.490 127.667 L 238.924 127.667 239.540 128.174 M173.061 134.230 C 173.363 134.356,173.773 134.666,173.972 134.919 L 174.333 135.378 174.333 152.408 L 174.333 169.438 173.875 169.875 C 173.104 170.610,172.714 170.667,168.400 170.667 C 163.962 170.667,163.527 170.595,162.861 169.748 L 162.500 169.288 162.501 152.353 L 162.502 135.417 162.876 134.963 C 163.631 134.047,163.890 134.002,168.380 134.001 C 171.515 134.000,172.643 134.055,173.061 134.230 M206.179 139.501 C 206.507 139.592,206.957 139.860,207.179 140.097 L 207.583 140.527 207.583 155.110 L 207.583 169.694 207.039 170.180 L 206.495 170.667 201.755 170.667 C 198.702 170.667,196.874 170.602,196.619 170.486 C 195.624 170.033,195.667 170.721,195.667 155.029 L 195.667 140.692 196.097 140.181 C 196.334 139.899,196.765 139.600,197.055 139.516 C 197.775 139.308,205.438 139.295,206.179 139.501 M223.177 149.784 C 224.179 150.627,224.167 150.506,224.167 159.908 C 224.167 171.505,224.675 170.557,218.417 170.636 C 213.687 170.696,213.240 170.626,212.546 169.716 L 212.083 169.109 212.083 159.926 L 212.083 150.742 212.472 150.246 C 213.170 149.357,213.241 149.346,218.112 149.339 L 222.641 149.333 223.177 149.784 " stroke="none" fill="#042c5c" fill-rule="evenodd"></path><path id="path1" d="M180.750 120.992 C 180.294 121.181,179.725 121.820,179.511 122.386 C 179.163 123.305,179.273 168.629,179.625 169.330 C 180.263 170.599,180.540 170.667,185.116 170.667 C 189.620 170.667,189.900 170.612,190.507 169.617 C 191.018 168.779,191.018 122.721,190.507 121.883 C 189.899 120.886,189.621 120.832,185.133 120.844 C 182.906 120.850,180.933 120.917,180.750 120.992 M229.698 128.171 C 228.610 128.834,228.667 127.674,228.667 149.289 C 228.667 171.262,228.578 169.684,229.844 170.362 C 230.649 170.794,238.204 170.824,239.050 170.399 C 240.259 169.791,240.159 171.692,240.163 149.245 C 240.167 127.057,240.242 128.639,239.165 128.082 C 238.328 127.649,230.433 127.723,229.698 128.171 " stroke="none" fill="#04fb04" fill-rule="evenodd"></path><path id="path2" d="M163.641 134.527 C 163.306 134.722,162.950 135.061,162.849 135.281 C 162.583 135.866,162.592 168.821,162.859 169.406 C 163.290 170.352,163.571 170.412,167.833 170.470 C 172.482 170.534,173.054 170.472,173.694 169.832 L 174.167 169.359 174.167 152.383 C 174.167 133.540,174.252 134.916,173.052 134.414 C 172.000 133.975,164.437 134.066,163.641 134.527 M197.052 139.684 C 195.744 140.062,195.833 138.935,195.833 155.083 C 195.833 171.313,195.730 170.093,197.134 170.507 C 198.359 170.868,206.225 170.646,206.776 170.235 C 207.481 169.708,207.466 170.031,207.483 155.120 C 207.502 139.481,207.560 140.260,206.349 139.776 C 205.569 139.464,198.070 139.389,197.052 139.684 M213.086 149.861 C 212.166 150.584,212.167 150.581,212.167 160.053 L 212.167 168.784 212.545 169.350 C 213.265 170.429,213.607 170.499,218.083 170.499 C 224.448 170.499,223.902 171.424,223.968 160.530 C 224.026 150.905,224.020 150.820,223.252 150.052 L 222.700 149.500 218.122 149.500 C 213.679 149.500,213.531 149.511,213.086 149.861 " stroke="none" fill="#04e3f3" fill-rule="evenodd"></path><path id="path3" d="M224.077 159.917 C 224.077 164.592,224.099 166.528,224.125 164.220 C 224.151 161.912,224.151 158.087,224.125 155.720 C 224.099 153.353,224.077 155.242,224.077 159.917 M166.532 170.624 C 167.513 170.654,169.163 170.654,170.199 170.625 C 171.235 170.595,170.433 170.571,168.417 170.571 C 166.400 170.571,165.552 170.595,166.532 170.624 " stroke="none" fill="#04537a" fill-rule="evenodd"></path><path id="path4" d="M163.477 134.510 L 163.083 134.853 163.583 134.560 C 164.241 134.175,164.251 134.167,164.046 134.167 C 163.949 134.167,163.693 134.321,163.477 134.510 M174.247 152.333 C 174.247 161.637,174.267 165.444,174.292 160.792 C 174.316 156.140,174.316 148.527,174.292 143.875 C 174.267 139.223,174.247 143.029,174.247 152.333 M162.580 152.333 C 162.580 161.546,162.600 165.315,162.625 160.708 C 162.650 156.102,162.650 148.565,162.625 143.958 C 162.600 139.352,162.580 143.121,162.580 152.333 M215.885 149.458 C 217.151 149.486,219.176 149.486,220.385 149.458 C 221.594 149.429,220.558 149.406,218.083 149.406 C 215.608 149.406,214.619 149.430,215.885 149.458 M212.667 150.083 C 212.452 150.311,212.308 150.527,212.347 150.561 C 212.385 150.595,212.591 150.408,212.804 150.145 C 213.282 149.556,213.197 149.518,212.667 150.083 M212.167 168.953 C 212.166 169.221,213.150 170.333,213.388 170.333 C 213.490 170.333,213.401 170.212,213.189 170.064 C 212.978 169.916,212.661 169.559,212.486 169.272 C 212.311 168.985,212.168 168.841,212.167 168.953 " stroke="none" fill="#04648c" fill-rule="evenodd"></path><path id="path5" d="" stroke="none" fill="#047834" fill-rule="evenodd"></path><path id="path6" d="M190.914 145.750 C 190.914 158.583,190.934 163.809,190.958 157.362 C 190.982 150.915,190.982 140.415,190.958 134.029 C 190.934 127.642,190.914 132.917,190.914 145.750 M232.375 127.791 C 233.544 127.820,235.456 127.820,236.625 127.791 C 237.794 127.763,236.838 127.739,234.500 127.739 C 232.162 127.739,231.206 127.763,232.375 127.791 M240.247 149.250 C 240.247 160.342,240.267 164.904,240.292 159.388 C 240.316 153.872,240.316 144.797,240.292 139.221 C 240.267 133.645,240.247 138.158,240.247 149.250 " stroke="none" fill="#048c24" fill-rule="evenodd"></path><path id="path7" d="M183.292 120.791 C 184.323 120.820,186.010 120.820,187.042 120.791 C 188.073 120.762,187.229 120.738,185.167 120.738 C 183.104 120.738,182.260 120.762,183.292 120.791 M179.248 145.750 C 179.248 158.400,179.267 163.600,179.292 157.305 C 179.316 151.010,179.316 140.660,179.292 134.305 C 179.267 127.950,179.248 133.100,179.248 145.750 M240.414 149.250 C 240.414 160.067,240.434 164.467,240.458 159.029 C 240.483 153.590,240.483 144.740,240.458 139.362 C 240.434 133.984,240.414 138.433,240.414 149.250 M228.581 149.250 C 228.581 159.975,228.601 164.338,228.625 158.945 C 228.649 153.553,228.649 144.778,228.625 139.445 C 228.601 134.113,228.581 138.525,228.581 149.250 " stroke="none" fill="#045c44" fill-rule="evenodd"></path><path id="path8" d="M166.198 134.124 C 167.362 134.153,169.312 134.153,170.532 134.125 C 171.752 134.096,170.800 134.073,168.417 134.073 C 166.033 134.073,165.035 134.096,166.198 134.124 M199.542 139.458 C 200.710 139.487,202.623 139.487,203.792 139.458 C 204.960 139.429,204.004 139.406,201.667 139.406 C 199.329 139.406,198.373 139.429,199.542 139.458 M195.746 154.833 C 195.746 162.671,195.767 165.877,195.792 161.958 C 195.817 158.040,195.817 151.627,195.792 147.708 C 195.767 143.790,195.746 146.996,195.746 154.833 M207.580 155.083 C 207.580 162.875,207.600 166.038,207.625 162.113 C 207.650 158.187,207.650 151.812,207.625 147.946 C 207.600 144.080,207.580 147.292,207.580 155.083 M212.078 159.917 C 212.078 164.683,212.099 166.609,212.125 164.197 C 212.151 161.784,212.151 157.884,212.125 155.530 C 212.099 153.176,212.077 155.150,212.078 159.917 M215.865 170.624 C 217.029 170.653,218.979 170.653,220.198 170.625 C 221.418 170.596,220.467 170.573,218.083 170.573 C 215.700 170.573,214.702 170.596,215.865 170.624 " stroke="none" fill="#044474" fill-rule="evenodd"></path></g></svg>