<svg id="svg" version="1.1" xmlns="http://www.w3.org/2000/svg" xmlns:xlink="http://www.w3.org/1999/xlink" width="400" height="322.21246707638284" viewBox="0, 0, 400,322.21246707638284"><g id="svgg"><path id="path0" d="M195.052 0.264 C 169.840 2.465,157.989 6.284,144.074 16.691 C 131.444 26.136,117.042 42.212,109.317 55.487 C 105.772 61.579,103.323 64.920,102.881 64.266 C 102.626 63.888,102.814 62.277,103.520 58.791 C 103.859 57.119,104.214 54.960,104.311 53.995 C 105.125 45.820,110.782 34.790,121.714 20.061 C 122.950 18.396,123.931 17.032,123.893 17.032 C 123.855 17.032,122.928 17.437,121.833 17.932 C 110.568 23.023,108.231 23.341,89.289 22.365 L 87.357 22.265 86.743 23.455 C 85.127 26.582,81.058 32.221,78.267 35.202 L 76.790 36.779 64.515 37.115 L 52.239 37.451 50.855 38.436 C 46.577 41.482,43.954 43.798,38.016 49.773 C 31.990 55.837,30.289 57.389,26.937 59.881 C 23.260 62.615,21.887 65.674,17.912 79.982 C 17.322 82.107,16.480 85.056,16.041 86.536 C 15.602 88.016,15.276 89.259,15.317 89.300 C 15.357 89.340,16.767 89.142,18.450 88.858 C 41.387 84.999,52.699 89.943,61.216 107.550 C 65.871 117.176,63.052 116.562,53.960 105.970 C 43.381 93.646,39.008 92.082,28.032 96.695 C 0.534 108.252,-5.293 122.797,4.548 155.312 C 9.329 171.108,13.589 180.703,19.043 187.965 C 30.839 203.670,46.236 209.023,71.466 206.191 C 77.497 205.514,82.373 205.514,84.384 206.191 C 87.941 207.388,89.854 210.172,89.471 213.596 C 89.304 215.098,89.592 214.714,90.440 212.306 C 91.574 209.089,92.713 204.243,93.767 198.156 C 94.973 191.188,95.761 189.113,97.199 189.113 C 98.291 189.113,100.002 191.661,101.223 195.105 L 101.698 196.443 101.262 197.826 C 98.853 205.473,100.689 217.239,105.912 227.626 C 111.352 238.446,125.075 249.146,137.128 251.965 C 147.515 254.394,168.002 252.926,179.853 248.904 C 182.380 248.046,182.427 247.965,181.109 246.737 C 176.490 242.435,150.736 217.185,150.308 216.540 C 147.609 212.465,156.386 215.487,168.480 222.798 C 184.212 232.307,196.254 241.828,205.711 252.235 C 212.910 260.157,222.828 270.633,244.946 293.675 C 255.094 304.247,270.118 319.849,271.182 320.920 L 271.730 321.471 278.196 321.858 C 281.752 322.071,284.704 322.203,284.756 322.151 C 284.808 322.099,282.767 320.021,280.221 317.534 C 271.597 309.107,270.469 307.670,264.526 297.542 C 250.909 274.332,253.357 254.864,272.736 232.280 C 276.446 227.956,276.762 228.110,274.686 233.229 C 269.266 246.593,265.814 265.709,267.269 274.298 C 269.909 289.876,283.872 299.088,301.141 296.645 C 308.258 295.638,315.310 292.106,325.637 284.375 C 355.694 261.876,367.619 239.035,358.825 220.808 C 356.299 215.573,352.660 211.423,345.009 205.054 C 338.720 199.819,338.261 199.295,341.270 200.789 C 343.582 201.936,348.689 205.041,357.397 210.594 C 363.150 214.264,364.801 215.241,364.987 215.086 C 365.118 214.977,366.342 213.635,367.707 212.104 C 369.072 210.572,371.583 208.040,373.286 206.476 C 393.667 187.763,397.423 183.056,399.283 173.903 C 400.987 165.517,400.130 159.489,394.188 138.065 C 393.122 134.223,391.667 128.907,390.955 126.251 C 389.449 120.635,389.329 120.274,388.405 118.560 C 385.147 112.520,377.491 107.958,367.515 106.111 C 366.105 105.851,365.141 105.816,361.282 105.886 C 348.832 106.115,345.582 105.932,342.172 104.813 C 339.293 103.868,339.573 102.899,343.486 100.269 C 346.820 98.028,349.643 97.843,361.858 99.060 C 363.914 99.264,365.641 99.387,365.697 99.331 C 365.752 99.275,365.712 98.337,365.608 97.244 C 365.504 96.152,365.297 93.126,365.149 90.518 C 364.636 81.489,364.534 80.233,364.171 78.444 C 361.953 67.537,355.009 61.787,337.577 56.425 C 331.738 54.629,331.692 54.658,330.999 60.553 C 329.472 73.531,320.614 92.834,316.983 91.093 C 315.491 90.378,314.851 86.748,315.450 82.403 C 317.680 66.236,318.031 47.755,316.326 36.303 C 314.733 25.605,310.095 21.678,292.976 16.530 C 268.143 9.062,235.192 1.387,229.851 1.827 C 212.138 3.284,202.959 21.654,205.538 50.483 C 206.167 57.516,206.182 59.377,205.608 59.487 C 205.325 59.541,205.249 59.397,203.908 56.277 C 203.509 55.348,202.723 54.010,202.000 53.029 C 190.574 37.524,190.680 14.379,202.230 2.847 C 204.877 0.205,203.090 -0.438,195.052 0.264 M183.998 88.933 C 185.034 89.507,185.693 90.254,186.053 91.264 C 186.377 92.172,186.420 170.334,186.097 171.412 C 185.820 172.339,184.730 173.540,183.712 174.041 C 182.880 174.451,182.873 174.451,175.580 174.451 L 168.281 174.451 167.240 173.921 C 165.999 173.288,165.180 172.202,164.891 170.806 C 164.756 170.157,164.714 158.387,164.747 130.817 L 164.794 91.747 165.271 90.843 C 166.541 88.434,166.978 88.332,175.856 88.375 L 183.055 88.411 183.998 88.933 M268.920 100.731 C 269.748 101.178,270.595 102.039,271.051 102.897 C 271.500 103.740,271.660 170.731,271.217 172.032 C 270.863 173.069,270.147 173.947,269.200 174.504 L 268.393 174.978 260.755 174.978 C 251.755 174.978,251.633 174.949,250.337 172.529 L 249.956 171.817 249.910 138.111 C 249.860 100.606,249.777 103.231,251.047 101.825 C 251.678 101.127,252.349 100.691,253.203 100.424 C 254.361 100.062,268.182 100.332,268.920 100.731 M155.137 112.090 C 156.098 112.537,157.038 113.492,157.485 114.474 C 157.885 115.354,157.926 170.321,157.527 171.451 C 157.211 172.347,156.024 173.629,155.136 174.035 C 154.163 174.480,140.054 174.537,139.010 174.100 C 138.055 173.702,137.128 172.797,136.673 171.819 L 136.263 170.939 136.262 142.996 L 136.260 115.053 136.743 114.130 C 137.974 111.776,138.322 111.694,147.059 111.686 C 154.237 111.680,154.261 111.682,155.137 112.090 M212.029 121.221 C 212.990 121.668,213.930 122.623,214.377 123.604 C 214.635 124.173,214.662 126.376,214.662 147.234 L 214.662 170.237 214.252 171.069 C 213.038 173.534,212.520 173.662,203.755 173.657 C 195.071 173.653,194.730 173.567,193.570 171.115 L 193.155 170.237 193.154 147.211 L 193.152 124.184 193.635 123.261 C 194.866 120.907,195.214 120.824,203.951 120.817 C 211.129 120.811,211.153 120.812,212.029 121.221 M240.399 138.389 C 241.291 138.795,242.275 139.707,242.723 140.545 L 243.108 141.264 243.156 156.001 C 243.209 172.354,243.252 171.688,242.053 173.088 C 241.721 173.476,241.072 173.981,240.611 174.210 L 239.772 174.627 232.397 174.627 L 225.022 174.627 224.118 174.150 C 222.997 173.559,222.194 172.610,221.856 171.478 C 221.484 170.230,221.469 142.538,221.840 141.305 C 222.297 139.786,223.427 138.662,224.903 138.256 C 226.233 137.890,239.554 138.005,240.399 138.389 " stroke="none" fill="#fbfcfb" fill-rule="evenodd"></path><path id="path1" d="M167.339 88.976 C 166.267 89.520,165.353 90.582,165.065 91.620 C 164.737 92.801,164.818 170.224,165.149 171.336 C 165.518 172.582,166.690 173.740,167.950 174.106 C 169.595 174.585,182.809 174.409,183.758 173.896 C 184.666 173.405,185.502 172.525,185.900 171.642 C 186.221 170.927,186.519 95.644,186.212 92.597 C 186.065 91.133,185.287 89.838,184.123 89.120 L 183.259 88.586 175.781 88.537 L 168.302 88.488 167.339 88.976 M252.877 100.679 C 251.949 101.016,250.918 101.993,250.464 102.969 L 250.047 103.863 250.046 137.589 C 250.044 175.259,249.941 172.287,251.297 173.644 C 252.567 174.913,252.532 174.909,260.945 174.853 L 268.421 174.802 269.281 174.271 C 269.813 173.942,270.342 173.413,270.671 172.880 L 271.203 172.021 271.251 137.942 C 271.294 107.324,271.271 103.789,271.023 103.133 C 270.673 102.206,269.267 100.879,268.373 100.630 C 267.372 100.352,253.661 100.396,252.877 100.679 " stroke="none" fill="#04fc04" fill-rule="evenodd"></path><path id="path2" d="M139.787 111.863 C 138.191 112.186,136.796 113.582,136.448 115.206 C 136.319 115.809,136.260 124.563,136.260 143.173 C 136.260 173.303,136.184 171.413,137.443 172.806 C 138.810 174.320,138.526 174.276,146.971 174.276 C 155.368 174.276,155.120 174.311,156.479 172.911 C 157.775 171.575,157.692 173.750,157.640 142.749 L 157.594 114.925 157.215 114.223 C 156.724 113.314,155.844 112.479,154.960 112.081 C 154.171 111.726,141.375 111.542,139.787 111.863 M196.477 121.043 C 194.891 121.480,193.665 122.780,193.334 124.376 C 192.990 126.036,193.171 170.085,193.525 170.864 C 194.689 173.423,195.191 173.563,203.478 173.627 C 212.120 173.693,212.818 173.529,214.104 171.127 L 214.486 170.413 214.486 147.234 L 214.486 124.056 214.107 123.354 C 213.616 122.445,212.736 121.609,211.853 121.212 C 210.945 120.803,197.869 120.659,196.477 121.043 M224.933 138.355 C 223.633 138.751,222.708 139.569,222.139 140.825 C 221.788 141.600,221.781 141.902,221.781 156.365 C 221.781 176.278,220.709 174.451,232.397 174.451 C 240.952 174.451,240.703 174.490,242.007 172.966 C 243.046 171.753,243.020 172.171,243.019 156.345 C 243.018 139.273,243.097 139.825,240.484 138.608 L 239.596 138.195 232.485 138.208 C 228.573 138.216,225.175 138.282,224.933 138.355 " stroke="none" fill="#04e4f4" fill-rule="evenodd"></path><path id="path3" d="M243.104 156.365 C 243.104 164.284,243.126 167.498,243.152 163.508 C 243.178 159.517,243.178 153.037,243.152 149.109 C 243.125 145.181,243.104 148.446,243.104 156.365 M221.682 156.365 C 221.682 164.091,221.703 167.226,221.730 163.332 C 221.756 159.438,221.756 153.116,221.730 149.285 C 221.703 145.453,221.682 148.639,221.682 156.365 " stroke="none" fill="#93f6d6" fill-rule="evenodd"></path><path id="path4" d="M164.792 131.431 C 164.792 152.871,164.813 161.616,164.838 150.864 C 164.863 140.112,164.863 122.570,164.838 111.882 C 164.813 101.194,164.792 109.991,164.792 131.431 M49.166 100.702 C 49.494 101.040,49.801 101.317,49.849 101.317 C 49.898 101.317,49.669 101.040,49.342 100.702 C 49.014 100.364,48.706 100.088,48.658 100.088 C 48.610 100.088,48.838 100.364,49.166 100.702 M8.681 108.560 L 8.165 109.131 8.736 108.615 C 9.050 108.331,9.306 108.075,9.306 108.044 C 9.306 107.909,9.162 108.028,8.681 108.560 M172.300 174.495 C 174.111 174.523,177.074 174.523,178.885 174.495 C 180.696 174.466,179.214 174.443,175.593 174.443 C 171.971 174.443,170.489 174.466,172.300 174.495 M281.651 318.931 C 281.651 318.961,281.907 319.218,282.221 319.502 L 282.792 320.018 282.276 319.447 C 281.795 318.915,281.651 318.795,281.651 318.931 " stroke="none" fill="#dcfcdc" fill-rule="evenodd"></path><path id="path5" d="M157.768 143.020 C 157.768 157.989,157.789 164.139,157.814 156.686 C 157.839 149.233,157.839 136.986,157.814 129.469 C 157.789 121.953,157.768 128.051,157.768 143.020 M214.659 147.234 C 214.659 159.500,214.680 164.491,214.706 158.327 C 214.731 152.163,214.731 142.128,214.706 136.027 C 214.680 129.926,214.659 134.969,214.659 147.234 M229.116 174.671 C 230.981 174.699,233.984 174.699,235.789 174.670 C 237.593 174.642,236.067 174.619,232.397 174.619 C 228.727 174.619,227.251 174.642,229.116 174.671 M201.054 247.322 C 201.381 247.660,201.689 247.937,201.737 247.937 C 201.785 247.937,201.557 247.660,201.229 247.322 C 200.902 246.984,200.594 246.708,200.546 246.708 C 200.497 246.708,200.726 246.984,201.054 247.322 " stroke="none" fill="#e0fcfa" fill-rule="evenodd"></path><path id="path6" d="M229.116 138.147 C 230.981 138.176,233.984 138.176,235.789 138.147 C 237.593 138.119,236.067 138.095,232.397 138.095 C 228.727 138.096,227.251 138.119,229.116 138.147 " stroke="none" fill="#cafbf7" fill-rule="evenodd"></path><path id="path7" d="M172.212 88.455 C 174.072 88.483,177.114 88.483,178.973 88.455 C 180.832 88.426,179.311 88.403,175.593 88.403 C 171.874 88.403,170.353 88.426,172.212 88.455 M257.375 100.395 C 259.234 100.423,262.276 100.423,264.135 100.395 C 265.994 100.366,264.473 100.343,260.755 100.343 C 257.037 100.343,255.516 100.366,257.375 100.395 M269.535 101.196 C 269.535 101.227,269.791 101.483,270.105 101.767 L 270.676 102.283 270.160 101.712 C 269.680 101.180,269.535 101.061,269.535 101.196 M271.377 137.665 C 271.377 156.159,271.397 163.725,271.422 154.478 C 271.447 145.230,271.447 130.099,271.422 120.852 C 271.397 111.604,271.377 119.170,271.377 137.665 M249.954 137.752 C 249.954 155.909,249.975 163.362,250.000 154.316 C 250.025 145.270,250.025 130.415,250.000 121.305 C 249.975 112.195,249.954 119.596,249.954 137.752 M257.123 175.022 C 259.134 175.050,262.373 175.050,264.323 175.022 C 266.272 174.993,264.627 174.970,260.667 174.970 C 256.708 174.970,255.113 174.994,257.123 175.022 " stroke="none" fill="#7cfc7c" fill-rule="evenodd"></path><path id="path8" d="" stroke="none" fill="#c4fcc4" fill-rule="evenodd"></path></g></svg>