<svg id="svg" version="1.1" xmlns="http://www.w3.org/2000/svg" xmlns:xlink="http://www.w3.org/1999/xlink" width="400" height="103.19218241042346" viewBox="0, 0, 400,103.19218241042346"><g id="svgg"><path id="path0" d="M172.215 0.375 C 171.422 0.936,171.333 1.292,171.333 3.935 C 171.333 7.003,171.379 7.078,173.706 7.824 C 175.138 8.284,175.000 4.973,174.999 38.814 C 174.999 73.276,175.215 69.483,173.209 70.141 C 171.353 70.750,171.333 70.789,171.333 73.883 L 171.333 76.495 171.820 77.039 L 172.306 77.583 182.028 77.583 L 191.750 77.583 193.000 77.180 C 198.270 75.480,201.863 71.511,203.273 65.833 C 203.569 64.641,203.583 63.390,203.583 38.833 L 203.583 13.083 203.217 11.709 C 202.848 10.328,202.642 9.787,201.898 8.250 C 200.387 5.129,197.942 2.693,194.969 1.345 C 194.382 1.079,193.117 0.667,192.159 0.431 L 190.417 0.000 181.581 0.000 L 172.745 -0.000 172.215 0.375 M191.901 8.249 C 193.397 8.981,194.655 10.322,195.344 11.922 L 195.917 13.250 195.917 38.833 L 195.917 64.417 195.447 65.571 C 194.485 67.939,192.885 69.405,190.693 69.929 C 189.079 70.315,184.053 70.249,183.371 69.833 C 182.459 69.276,182.494 70.591,182.540 38.571 L 182.583 8.506 182.994 8.212 C 183.724 7.688,183.866 7.673,187.417 7.720 C 190.895 7.767,190.923 7.770,191.901 8.249 M386.667 21.920 C 384.869 22.330,383.430 23.177,382.178 24.559 C 379.409 27.617,379.105 33.067,381.451 37.583 C 381.690 38.042,382.520 39.654,383.297 41.167 C 384.074 42.679,385.131 44.729,385.646 45.721 C 386.162 46.713,387.111 48.551,387.756 49.804 C 388.401 51.058,389.018 52.233,389.127 52.417 C 389.236 52.600,389.505 53.125,389.726 53.583 C 389.947 54.042,390.848 55.823,391.729 57.542 C 395.012 63.949,395.223 67.913,392.421 70.586 C 388.576 74.254,381.838 71.357,381.833 66.033 C 381.831 64.516,380.940 64.031,378.480 64.207 C 377.099 64.306,376.726 64.576,376.574 65.588 C 376.428 66.562,376.741 69.281,377.092 70.091 C 377.857 71.855,378.467 72.991,378.863 73.387 C 379.016 73.540,379.278 73.835,379.446 74.043 C 382.156 77.408,389.464 78.620,393.962 76.450 C 396.020 75.458,397.796 73.658,398.684 71.667 C 398.786 71.438,398.936 71.120,399.018 70.961 C 400.252 68.559,400.231 61.041,398.987 59.758 C 398.902 59.671,398.833 59.492,398.833 59.360 C 398.833 59.004,397.977 57.222,395.817 53.083 C 395.291 52.075,394.476 50.500,394.007 49.583 C 392.646 46.925,390.335 42.459,388.918 39.750 C 385.531 33.277,385.337 32.722,385.587 30.225 C 385.882 27.280,389.380 26.086,391.501 28.207 C 392.164 28.870,392.374 29.387,392.575 30.852 C 392.751 32.138,392.905 32.242,394.747 32.308 C 397.860 32.421,398.210 32.093,397.837 29.419 C 397.093 24.087,392.037 20.692,386.667 21.920 M216.000 22.488 C 213.246 23.230,211.158 25.236,210.763 27.521 C 210.710 27.830,210.593 28.383,210.504 28.750 C 210.217 29.926,210.282 69.570,210.573 70.947 C 210.987 72.907,212.649 75.667,213.416 75.667 C 213.480 75.667,213.731 75.804,213.974 75.971 C 215.573 77.070,224.430 77.533,227.041 76.653 C 229.639 75.778,231.134 74.188,231.902 71.485 C 232.306 70.063,232.304 29.259,231.900 27.848 C 231.035 24.831,229.472 23.254,226.584 22.485 C 224.922 22.043,217.646 22.045,216.000 22.488 M238.718 22.569 L 238.250 22.971 238.250 45.444 L 238.250 67.917 238.609 69.167 C 238.979 70.451,239.599 72.010,239.802 72.163 C 239.866 72.211,240.030 72.471,240.167 72.741 C 241.572 75.505,245.427 77.503,249.344 77.497 C 254.766 77.490,258.565 74.384,259.940 68.833 C 260.251 67.580,260.541 25.140,260.250 23.542 C 259.994 22.134,256.349 21.452,255.051 22.569 L 254.583 22.971 254.500 45.694 L 254.417 68.417 253.863 69.368 C 251.672 73.133,246.608 73.080,244.618 69.272 L 244.083 68.250 244.000 45.556 L 243.917 22.861 243.516 22.514 C 242.870 21.954,239.386 21.994,238.718 22.569 M266.125 22.519 C 265.670 22.858,265.667 22.877,265.667 24.818 C 265.667 27.609,265.505 27.500,269.652 27.500 C 273.130 27.500,273.867 27.648,274.065 28.386 C 274.118 28.586,274.163 39.388,274.164 52.391 C 274.167 76.022,274.167 76.032,274.511 76.516 L 274.856 77.000 277.097 77.000 L 279.338 77.000 279.668 76.458 C 279.994 75.925,279.999 75.549,279.999 52.061 L 280.000 28.205 280.458 27.894 C 280.864 27.619,281.330 27.578,284.537 27.533 L 288.157 27.482 288.495 27.007 C 289.193 26.027,288.923 22.871,288.093 22.294 C 287.600 21.952,266.597 22.167,266.125 22.519 M299.083 22.491 C 295.795 23.329,294.037 25.456,293.566 29.167 C 293.227 31.837,293.240 67.884,293.581 70.281 C 294.337 75.598,296.591 77.000,304.384 77.000 C 311.597 77.000,313.367 76.146,314.884 71.934 L 315.250 70.917 315.250 49.750 C 315.250 26.596,315.282 27.404,314.303 25.974 C 314.136 25.731,313.999 25.468,313.999 25.391 C 313.997 25.261,312.921 24.125,312.329 23.630 C 310.667 22.237,302.748 21.557,299.083 22.491 M321.529 22.552 L 321.167 22.938 321.167 49.715 L 321.167 76.492 321.562 76.751 C 321.878 76.959,322.385 77.001,324.104 76.963 L 326.250 76.917 326.541 76.333 C 326.810 75.795,326.833 74.864,326.833 64.231 C 326.833 50.383,326.520 51.833,329.512 51.833 C 331.891 51.833,332.496 52.272,332.499 54.000 C 332.499 54.137,332.642 54.775,332.817 55.417 C 332.992 56.058,333.259 57.146,333.410 57.833 C 333.820 59.695,334.264 61.606,334.591 62.917 C 334.751 63.558,334.936 64.383,335.002 64.750 C 335.069 65.117,335.216 65.792,335.329 66.250 C 335.778 68.067,336.147 69.645,336.421 70.917 C 336.579 71.650,336.844 72.813,337.011 73.500 C 337.177 74.188,337.356 75.012,337.407 75.333 C 337.459 75.654,337.650 76.160,337.831 76.458 L 338.162 77.000 340.414 77.000 C 343.500 77.000,343.895 76.467,343.025 73.476 C 342.856 72.893,342.585 71.817,342.423 71.083 C 342.261 70.350,341.995 69.225,341.830 68.583 C 341.266 66.382,340.860 64.749,340.588 63.583 C 340.438 62.942,340.172 61.854,339.997 61.167 C 339.823 60.479,339.413 58.792,339.086 57.417 C 338.759 56.042,338.343 54.424,338.162 53.822 C 337.981 53.218,337.833 52.241,337.833 51.644 L 337.833 50.562 338.979 49.656 C 342.593 46.799,343.398 44.323,343.287 36.408 C 343.204 30.556,343.036 29.628,341.619 27.242 C 339.154 23.088,336.662 22.172,327.821 22.169 L 321.891 22.167 321.529 22.552 M349.776 22.547 L 349.333 22.927 349.333 49.601 L 349.333 76.275 349.719 76.638 L 350.105 77.000 360.636 77.000 C 373.227 77.000,372.103 77.296,371.975 74.010 C 371.925 72.715,371.865 72.457,371.537 72.129 L 371.158 71.750 363.418 71.667 C 356.277 71.590,355.655 71.560,355.381 71.286 C 355.054 70.959,354.822 54.723,355.123 53.250 C 355.369 52.048,355.609 52.001,361.500 51.998 C 368.141 51.995,367.918 52.098,367.807 49.076 C 367.717 46.611,368.140 46.768,361.302 46.667 C 356.193 46.591,355.651 46.556,355.381 46.286 C 355.068 45.973,354.819 31.610,355.083 29.068 C 355.251 27.441,354.926 27.500,363.741 27.500 L 371.137 27.500 371.583 26.970 C 372.262 26.163,372.172 23.190,371.449 22.569 L 370.981 22.167 360.600 22.167 L 350.219 22.167 349.776 22.547 M224.773 27.768 C 226.745 28.420,226.664 27.485,226.665 49.653 C 226.667 70.146,226.674 69.987,225.718 70.915 C 224.752 71.853,218.393 72.048,217.215 71.176 C 216.097 70.349,216.167 71.798,216.167 49.461 L 216.167 29.222 216.708 28.602 C 217.522 27.671,218.170 27.516,221.273 27.507 C 223.312 27.502,224.158 27.565,224.773 27.768 M307.872 27.774 C 308.732 28.106,309.207 28.565,309.470 29.318 C 309.752 30.126,309.753 68.924,309.471 69.864 C 308.996 71.451,308.051 71.739,303.639 71.641 C 300.497 71.571,300.113 71.439,299.522 70.223 L 299.167 69.491 299.167 49.653 C 299.167 26.596,299.006 28.606,300.914 27.801 C 301.879 27.394,306.836 27.375,307.872 27.774 M333.864 27.829 C 336.944 28.781,337.659 30.480,337.664 36.860 C 337.670 44.980,336.590 46.409,330.444 46.414 L 327.639 46.417 327.236 45.949 L 326.833 45.481 326.833 37.082 C 326.833 28.307,326.854 28.037,327.561 27.695 C 328.240 27.366,332.670 27.460,333.864 27.829 M50.503 36.874 C 49.672 37.308,49.672 37.311,49.669 46.719 C 49.667 55.747,49.681 55.963,50.319 56.453 C 50.803 56.825,55.542 56.738,56.023 56.348 L 56.417 56.030 56.462 46.862 L 56.508 37.695 56.102 37.222 L 55.696 36.750 53.306 36.704 C 51.598 36.672,50.799 36.720,50.503 36.874 M68.321 40.154 L 67.833 40.641 67.833 48.061 L 67.833 55.481 68.236 55.949 L 68.638 56.417 71.250 56.417 L 73.862 56.417 74.264 55.949 L 74.667 55.481 74.667 48.015 L 74.667 40.549 74.258 40.108 C 73.851 39.668,73.840 39.667,71.328 39.667 L 68.808 39.667 68.321 40.154 M77.439 45.606 L 77.000 46.045 77.000 50.930 L 77.000 55.815 77.402 56.282 C 77.803 56.749,77.807 56.750,80.194 56.798 C 84.043 56.875,83.875 57.167,83.801 50.527 L 83.750 45.971 83.282 45.569 C 82.529 44.921,78.096 44.950,77.439 45.606 " stroke="none" fill="#04e4f3" fill-rule="evenodd"></path><path id="path1" d="M147.667 51.333 L 147.667 102.667 149.667 102.667 L 151.667 102.667 151.667 51.333 L 151.667 0.000 149.667 0.000 L 147.667 0.000 147.667 51.333 M59.310 29.652 L 58.917 29.971 58.917 43.000 L 58.917 56.029 59.310 56.348 C 59.977 56.888,64.466 56.823,65.116 56.264 L 65.583 55.862 65.583 43.000 L 65.583 30.138 65.116 29.736 C 64.466 29.177,59.977 29.112,59.310 29.652 M86.705 33.278 C 86.017 33.555,86.000 33.830,86.000 45.000 C 86.000 56.300,86.009 56.443,86.757 56.730 C 87.486 57.010,91.958 56.838,92.357 56.515 L 92.750 56.196 92.797 45.390 C 92.847 34.007,92.847 34.014,92.329 33.496 C 92.009 33.175,87.403 32.997,86.705 33.278 " stroke="none" fill="#04fc04" fill-rule="evenodd"></path><path id="path2" d="M61.083 0.161 C 60.625 0.226,59.575 0.370,58.750 0.480 C 55.887 0.863,52.925 1.552,51.667 2.129 C 51.346 2.276,50.847 2.483,50.557 2.590 C 50.061 2.772,47.346 4.296,47.167 4.492 C 47.121 4.542,46.708 4.843,46.250 5.161 C 45.792 5.478,45.331 5.816,45.227 5.911 C 45.123 6.006,44.525 6.533,43.899 7.083 C 42.150 8.618,38.833 12.067,38.833 12.350 C 38.833 12.433,38.768 12.500,38.688 12.500 C 38.608 12.500,38.177 12.992,37.730 13.594 C 37.283 14.196,36.837 14.777,36.741 14.886 C 36.644 14.994,36.515 15.215,36.454 15.375 C 36.393 15.535,36.271 15.667,36.183 15.667 C 36.095 15.667,35.978 15.808,35.923 15.980 C 35.868 16.153,35.677 16.462,35.499 16.668 C 35.320 16.874,35.214 17.108,35.263 17.188 C 35.313 17.268,35.282 17.333,35.195 17.333 C 35.109 17.333,34.905 17.615,34.742 17.958 C 34.465 18.543,33.870 19.479,33.655 19.667 C 33.602 19.712,33.511 19.881,33.451 20.042 C 33.146 20.869,32.901 20.251,33.171 19.332 C 33.265 19.012,33.376 18.300,33.418 17.750 C 33.506 16.611,33.886 15.203,34.350 14.300 C 34.524 13.961,34.667 13.568,34.667 13.425 C 34.667 13.283,34.730 13.167,34.808 13.167 C 34.886 13.167,35.073 12.885,35.224 12.542 C 35.374 12.198,35.682 11.617,35.908 11.250 C 36.133 10.883,36.372 10.471,36.438 10.333 C 36.505 10.196,36.602 10.046,36.655 10.000 C 36.708 9.954,37.042 9.467,37.398 8.917 C 37.754 8.367,38.419 7.407,38.877 6.785 C 39.774 5.564,39.793 5.280,38.952 5.695 C 38.657 5.840,38.117 6.073,37.750 6.214 C 37.383 6.354,36.645 6.638,36.109 6.844 C 35.194 7.196,34.911 7.216,31.492 7.185 L 27.849 7.152 27.568 7.701 C 27.413 8.003,27.241 8.287,27.185 8.333 C 27.128 8.379,26.798 8.851,26.451 9.382 C 26.104 9.913,25.673 10.474,25.494 10.628 C 25.314 10.781,25.164 10.984,25.161 11.079 C 25.143 11.681,24.451 11.803,20.348 11.927 C 17.186 12.022,16.285 12.098,16.218 12.274 C 16.170 12.398,16.043 12.500,15.936 12.500 C 15.829 12.500,15.623 12.631,15.479 12.792 C 15.335 12.952,14.973 13.271,14.674 13.500 C 14.376 13.729,13.092 14.948,11.821 16.208 C 10.550 17.469,9.458 18.500,9.394 18.500 C 9.060 18.500,7.336 20.345,7.221 20.825 C 7.165 21.059,6.979 21.529,6.808 21.871 C 6.637 22.213,6.513 22.550,6.533 22.621 C 6.553 22.692,6.438 23.162,6.279 23.667 C 6.119 24.171,5.851 25.033,5.684 25.583 C 5.516 26.133,5.244 27.015,5.079 27.542 C 4.689 28.787,4.681 28.783,6.964 28.450 C 11.685 27.762,14.764 28.497,17.042 30.858 C 17.569 31.404,18.000 31.887,18.000 31.932 C 18.000 31.977,18.076 32.105,18.169 32.215 C 18.561 32.682,19.118 33.639,19.451 34.417 C 19.648 34.875,19.923 35.470,20.062 35.738 C 20.837 37.226,18.939 35.899,17.357 33.845 C 14.809 30.538,12.209 29.482,9.500 30.653 C 7.284 31.612,5.162 32.705,4.703 33.125 C 4.578 33.240,4.425 33.333,4.363 33.333 C 4.154 33.333,2.026 35.411,1.619 36.013 C -0.272 38.809,-0.510 42.429,0.848 47.750 C 0.941 48.117,1.084 48.723,1.166 49.098 C 1.247 49.473,1.424 50.036,1.560 50.348 C 1.696 50.661,1.995 51.517,2.225 52.250 C 2.857 54.265,3.794 56.576,4.355 57.500 C 4.438 57.637,4.619 57.975,4.756 58.250 C 5.071 58.883,5.359 59.340,5.626 59.630 C 5.740 59.756,6.054 60.171,6.323 60.554 C 7.796 62.652,11.701 65.349,13.621 65.595 C 13.934 65.635,14.342 65.749,14.528 65.848 C 15.393 66.311,19.859 66.370,23.790 65.970 C 27.058 65.638,29.197 66.757,28.545 68.456 C 28.475 68.638,28.508 68.682,28.649 68.594 C 28.995 68.381,29.541 66.660,29.842 64.833 C 30.521 60.725,31.109 59.792,31.915 61.545 C 32.162 62.083,32.223 62.506,32.171 63.333 C 31.944 66.972,32.290 69.871,33.137 71.432 C 33.232 71.607,33.480 72.125,33.688 72.583 C 34.533 74.440,37.848 78.167,38.655 78.167 C 38.738 78.167,38.831 78.223,38.861 78.292 C 39.065 78.751,42.296 80.326,43.689 80.645 C 47.427 81.501,53.940 81.029,57.712 79.628 C 58.489 79.340,58.427 79.242,55.969 76.876 C 54.659 75.615,52.506 73.515,51.185 72.208 C 49.864 70.902,48.725 69.833,48.654 69.833 C 48.491 69.833,48.007 68.881,48.116 68.773 C 48.315 68.574,51.530 69.964,53.083 70.920 C 53.450 71.146,53.862 71.384,54.000 71.449 C 54.137 71.514,54.325 71.628,54.417 71.702 C 54.508 71.777,55.146 72.208,55.833 72.660 C 56.521 73.113,57.158 73.544,57.250 73.619 C 57.342 73.694,57.810 74.006,58.292 74.312 C 58.773 74.618,59.167 74.935,59.167 75.017 C 59.167 75.099,59.245 75.167,59.340 75.167 C 59.436 75.167,59.605 75.243,59.715 75.336 C 60.533 76.026,60.834 76.260,61.458 76.692 C 61.848 76.962,62.167 77.254,62.167 77.341 C 62.167 77.429,62.241 77.500,62.331 77.500 C 62.520 77.500,65.091 80.074,67.167 82.340 C 69.583 84.979,71.193 86.683,72.708 88.206 C 73.510 89.012,74.167 89.708,74.167 89.753 C 74.167 89.798,74.823 90.497,75.625 91.307 C 76.427 92.117,78.583 94.344,80.417 96.256 C 82.250 98.168,84.429 100.437,85.258 101.299 L 86.767 102.866 88.897 103.031 C 90.068 103.121,91.071 103.151,91.125 103.097 C 91.179 103.044,90.315 102.081,89.205 100.958 C 87.254 98.984,86.000 97.515,86.000 97.202 C 86.000 97.120,85.850 96.916,85.667 96.750 C 85.483 96.584,85.333 96.388,85.333 96.315 C 85.333 96.241,85.098 95.784,84.810 95.299 C 83.815 93.621,83.623 93.244,83.085 91.908 C 81.776 88.663,81.640 84.536,82.747 81.667 C 83.237 80.396,83.509 79.761,83.674 79.500 C 83.761 79.362,83.953 78.969,84.101 78.625 C 84.249 78.281,84.427 78.000,84.498 78.000 C 84.568 78.000,84.717 77.781,84.828 77.513 C 84.939 77.245,85.246 76.814,85.510 76.555 C 85.775 76.295,85.996 76.008,86.003 75.917 C 86.009 75.825,86.467 75.262,87.020 74.667 C 88.036 73.571,88.136 73.615,87.585 74.917 C 87.188 75.854,86.615 77.582,86.570 77.977 C 86.545 78.193,86.450 78.568,86.357 78.810 C 85.063 82.201,84.968 88.364,86.180 90.333 C 86.265 90.471,86.409 90.756,86.499 90.967 C 86.714 91.464,88.703 93.453,89.200 93.667 C 89.411 93.758,89.696 93.899,89.833 93.981 C 91.607 95.032,96.261 95.359,98.097 94.560 C 98.548 94.364,99.104 94.123,99.333 94.025 C 100.040 93.723,101.888 92.660,102.447 92.236 C 102.739 92.015,103.025 91.833,103.083 91.833 C 103.286 91.833,107.264 88.603,108.278 87.615 C 108.843 87.063,109.424 86.546,109.569 86.464 C 109.715 86.383,109.833 86.253,109.833 86.175 C 109.833 86.097,110.158 85.707,110.555 85.308 C 111.639 84.219,113.392 81.815,114.000 80.583 C 114.181 80.217,114.396 79.804,114.478 79.667 C 114.786 79.147,115.167 78.144,115.167 77.849 C 115.167 77.680,115.282 77.214,115.424 76.814 C 116.682 73.246,114.137 67.911,109.808 65.047 C 109.455 64.813,109.167 64.552,109.167 64.467 C 109.167 64.381,109.373 64.454,109.625 64.628 C 109.877 64.803,110.196 64.995,110.333 65.055 C 110.471 65.116,111.170 65.540,111.888 65.999 C 112.606 66.458,113.262 66.833,113.346 66.833 C 113.431 66.833,113.500 66.903,113.500 66.988 C 113.500 67.073,113.706 67.246,113.958 67.374 C 114.605 67.701,115.235 68.067,115.333 68.174 C 115.379 68.224,115.711 68.435,116.070 68.644 L 116.724 69.023 117.145 68.470 C 117.377 68.165,118.394 67.129,119.405 66.167 C 122.880 62.858,126.084 59.583,126.333 59.083 C 126.470 58.808,126.630 58.546,126.688 58.500 C 126.796 58.414,127.552 56.538,127.749 55.867 C 128.278 54.061,127.798 50.315,126.411 45.417 C 126.255 44.867,126.065 44.154,125.988 43.833 C 125.911 43.512,125.656 42.575,125.421 41.750 C 125.186 40.925,124.948 39.987,124.893 39.667 C 124.661 38.335,123.574 36.655,122.453 35.894 C 122.066 35.632,121.712 35.372,121.667 35.317 C 121.621 35.262,121.058 35.015,120.417 34.768 C 119.775 34.521,119.063 34.234,118.833 34.130 C 118.570 34.010,117.037 33.929,114.667 33.910 C 109.082 33.863,108.068 33.520,109.855 32.282 L 110.770 31.648 112.593 31.655 C 113.596 31.659,114.978 31.733,115.664 31.820 C 116.349 31.907,116.944 31.945,116.985 31.904 C 117.215 31.674,116.465 24.564,116.127 23.765 C 115.617 22.562,113.788 20.333,113.310 20.333 C 113.244 20.333,113.091 20.235,112.970 20.114 C 112.535 19.681,108.461 18.011,107.583 17.906 C 107.400 17.884,107.063 17.818,106.833 17.759 C 106.068 17.562,105.806 17.955,105.664 19.513 C 105.593 20.285,105.407 21.329,105.250 21.833 C 104.753 23.428,104.469 24.230,104.157 24.917 C 103.991 25.283,103.728 25.883,103.574 26.250 C 101.774 30.526,100.345 29.729,101.121 24.880 C 101.818 20.517,101.472 11.194,100.540 9.250 C 100.271 8.690,98.717 7.167,98.414 7.167 C 98.306 7.167,98.045 7.017,97.833 6.833 C 97.622 6.650,97.315 6.500,97.151 6.500 C 96.987 6.500,96.814 6.436,96.766 6.359 C 96.644 6.162,94.319 5.410,91.000 4.493 C 90.313 4.303,89.412 4.041,89.000 3.912 C 88.587 3.782,88.052 3.643,87.810 3.603 C 87.569 3.562,86.969 3.414,86.477 3.274 C 84.992 2.851,83.159 2.393,81.750 2.092 C 81.017 1.935,79.817 1.667,79.083 1.495 C 71.483 -0.286,67.784 1.370,66.229 7.250 C 66.083 7.800,65.883 8.550,65.784 8.917 C 65.675 9.321,65.609 11.332,65.616 14.033 L 65.628 18.484 64.779 17.200 C 63.968 15.973,63.502 15.111,62.961 13.833 C 61.244 9.784,61.949 4.089,64.505 1.348 C 65.526 0.253,65.397 0.088,63.498 0.062 C 62.628 0.051,61.542 0.095,61.083 0.161 M64.812 29.351 C 65.687 29.656,65.667 29.335,65.667 43.072 C 65.667 58.634,66.149 56.904,61.838 56.805 L 59.468 56.750 59.068 56.250 L 58.668 55.750 58.667 42.995 C 58.667 29.141,58.630 29.707,59.559 29.332 C 60.083 29.121,64.195 29.136,64.812 29.351 M92.176 33.172 C 93.004 33.615,93.000 33.557,93.000 45.000 C 93.000 56.443,93.004 56.385,92.176 56.828 C 91.515 57.182,86.933 57.043,86.439 56.655 L 86.000 56.309 86.000 45.000 L 86.000 33.691 86.439 33.345 C 86.933 32.957,91.515 32.818,92.176 33.172 M56.179 37.154 L 56.667 37.641 56.667 46.563 C 56.667 56.140,56.666 56.153,55.809 56.596 C 55.153 56.935,51.004 56.930,50.345 56.589 C 49.647 56.229,49.667 56.514,49.667 46.582 L 49.667 37.358 50.106 37.012 C 50.507 36.697,50.767 36.667,53.119 36.667 L 55.692 36.667 56.179 37.154 M74.215 39.899 C 74.838 40.476,74.854 40.719,74.800 48.538 L 74.750 55.659 74.288 56.121 L 73.826 56.583 71.250 56.583 L 68.674 56.583 68.212 56.121 L 67.750 55.659 67.703 48.324 C 67.643 38.860,67.366 39.530,71.351 39.511 C 73.694 39.500,73.801 39.515,74.215 39.899 M83.000 45.213 C 83.907 45.666,84.000 46.186,83.999 50.833 C 83.998 57.042,84.121 56.833,80.471 56.833 C 76.637 56.833,76.831 57.153,76.839 50.850 C 76.846 45.937,76.885 45.676,77.685 45.233 C 78.223 44.935,82.412 44.919,83.000 45.213 M171.833 86.455 C 171.357 86.636,171.338 86.952,171.336 94.705 L 171.333 102.494 171.749 102.598 C 171.977 102.655,174.171 102.669,176.624 102.629 C 182.083 102.539,182.602 102.380,183.606 100.500 C 184.099 99.576,184.080 89.369,183.583 88.499 C 183.212 87.847,182.566 87.153,182.274 87.092 C 182.169 87.069,181.858 86.956,181.583 86.840 C 180.601 86.424,172.731 86.113,171.833 86.455 M192.329 86.761 C 192.240 86.996,192.167 87.249,192.167 87.323 C 192.167 87.449,191.775 88.411,191.236 89.609 C 191.106 89.897,191.000 90.207,191.000 90.296 C 191.000 90.446,190.638 91.344,190.070 92.609 C 189.940 92.897,189.833 93.249,189.833 93.390 C 189.833 93.532,189.764 93.690,189.679 93.742 C 189.595 93.794,189.472 94.080,189.407 94.377 C 189.342 94.674,189.149 95.178,188.978 95.498 C 188.807 95.817,188.667 96.194,188.667 96.335 C 188.667 96.477,188.558 96.748,188.424 96.938 C 188.291 97.129,188.148 97.464,188.107 97.684 C 188.065 97.904,187.912 98.308,187.767 98.583 C 187.621 98.858,187.502 99.182,187.501 99.303 C 187.500 99.423,187.410 99.686,187.299 99.886 C 186.256 101.775,186.352 103.167,187.526 103.167 C 187.954 103.167,188.667 102.556,188.667 102.188 C 188.667 102.075,188.811 101.664,188.988 101.277 C 189.164 100.889,189.360 100.367,189.423 100.118 C 189.486 99.868,189.604 99.622,189.685 99.572 C 189.767 99.522,189.833 99.338,189.833 99.165 C 189.833 98.991,189.920 98.658,190.027 98.425 L 190.220 98.000 193.610 98.000 C 196.037 98.000,197.000 98.054,197.000 98.190 C 197.000 98.295,197.142 98.688,197.315 99.065 C 197.822 100.167,198.183 101.078,198.224 101.359 C 198.345 102.179,199.089 103.167,199.583 103.161 C 201.097 103.145,201.028 102.390,199.106 97.953 C 198.956 97.606,198.833 97.249,198.833 97.159 C 198.833 97.070,198.690 96.678,198.515 96.290 C 198.340 95.901,198.034 95.133,197.836 94.583 C 197.637 94.033,197.375 93.358,197.252 93.083 C 197.130 92.808,196.876 92.171,196.689 91.667 C 196.359 90.778,195.629 88.930,195.339 88.250 C 195.260 88.067,195.058 87.561,194.890 87.126 L 194.583 86.335 193.538 86.334 C 192.568 86.333,192.480 86.365,192.329 86.761 M218.000 86.481 C 217.404 86.542,216.682 86.718,216.396 86.873 C 216.110 87.027,215.835 87.112,215.785 87.062 C 215.735 87.013,215.402 87.272,215.045 87.640 C 214.095 88.619,214.000 89.251,214.000 94.594 C 214.000 102.373,214.194 102.583,221.361 102.583 C 226.358 102.583,226.667 102.422,226.667 99.809 C 226.667 97.859,224.953 97.761,224.647 99.694 C 224.469 100.823,224.707 100.750,221.193 100.748 C 215.910 100.743,215.995 100.848,216.046 94.417 C 216.095 88.245,215.890 88.515,220.632 88.378 C 224.317 88.271,224.451 88.302,224.595 89.297 C 224.766 90.475,224.914 90.667,225.652 90.667 C 227.082 90.667,227.054 87.832,225.613 86.765 C 225.106 86.390,220.557 86.220,218.000 86.481 M263.875 86.447 C 263.427 86.538,263.219 87.190,263.438 87.815 L 263.591 88.250 265.790 88.296 L 267.990 88.343 268.036 95.353 L 268.083 102.363 268.477 102.682 C 269.008 103.112,269.529 103.082,270.059 102.591 L 270.500 102.183 270.500 95.258 L 270.500 88.333 272.633 88.333 C 274.977 88.333,275.167 88.264,275.167 87.404 C 275.167 86.427,275.122 86.419,269.433 86.393 C 266.582 86.381,264.081 86.405,263.875 86.447 M282.772 86.740 C 282.487 87.174,282.036 88.313,281.876 88.999 C 281.823 89.228,281.641 89.640,281.473 89.916 C 281.305 90.191,281.167 90.529,281.166 90.667 C 281.165 90.804,281.053 91.131,280.916 91.394 C 280.779 91.657,280.667 91.973,280.667 92.097 C 280.667 92.222,280.517 92.590,280.333 92.917 C 280.150 93.243,280.000 93.609,280.000 93.729 C 280.000 93.850,279.880 94.189,279.734 94.482 C 279.588 94.775,279.454 95.105,279.437 95.216 C 279.419 95.326,279.276 95.672,279.119 95.984 C 278.962 96.296,278.833 96.650,278.833 96.772 C 278.833 96.893,278.684 97.238,278.501 97.538 C 278.318 97.838,278.168 98.238,278.167 98.426 C 278.167 98.615,278.057 98.915,277.922 99.093 C 277.787 99.271,277.675 99.558,277.672 99.730 C 277.669 99.903,277.509 100.299,277.317 100.610 C 276.567 101.823,276.846 103.158,277.849 103.164 C 278.415 103.167,279.333 101.945,279.333 101.188 C 279.333 101.019,279.460 100.709,280.311 98.792 L 280.662 98.000 283.917 98.000 L 287.171 98.000 287.494 98.708 C 287.672 99.098,288.011 99.942,288.247 100.583 C 288.484 101.225,288.750 101.880,288.839 102.039 C 288.928 102.199,289.000 102.415,289.000 102.521 C 289.000 103.201,290.357 103.374,290.768 102.746 C 291.046 102.321,290.757 100.744,290.312 100.258 C 290.232 100.171,290.166 99.946,290.166 99.758 C 290.166 99.570,290.024 99.185,289.852 98.903 C 289.680 98.620,289.487 98.152,289.423 97.863 C 289.360 97.574,289.238 97.294,289.154 97.242 C 289.069 97.190,289.000 97.004,289.000 96.829 C 289.000 96.653,288.850 96.243,288.667 95.917 C 288.483 95.590,288.333 95.238,288.333 95.133 C 288.333 94.869,287.500 92.785,287.316 92.592 C 287.234 92.505,287.166 92.280,287.166 92.092 C 287.166 91.904,287.016 91.504,286.833 91.204 C 286.650 90.904,286.500 90.525,286.500 90.361 C 286.500 90.198,286.390 89.918,286.255 89.740 C 286.121 89.562,286.008 89.267,286.004 89.083 C 286.001 88.900,285.849 88.525,285.667 88.250 C 285.485 87.975,285.335 87.616,285.334 87.452 C 285.330 86.350,283.382 85.809,282.772 86.740 M294.644 86.433 C 294.494 86.479,294.325 86.748,294.269 87.029 C 294.091 87.918,294.152 101.773,294.336 102.256 L 294.505 102.701 299.127 102.631 C 304.109 102.555,304.915 102.418,305.840 101.494 C 307.369 99.965,307.212 95.119,305.587 93.692 L 305.003 93.180 305.322 92.632 C 306.571 90.483,305.674 87.653,303.492 86.858 C 302.446 86.477,295.571 86.147,294.644 86.433 M338.429 86.595 C 337.952 87.072,338.041 102.254,338.522 102.512 C 339.153 102.849,347.570 102.634,348.500 102.256 C 349.577 101.818,350.299 101.072,350.588 100.099 C 350.912 99.009,350.943 90.249,350.628 89.070 C 350.442 88.376,349.423 87.095,349.042 87.077 C 348.973 87.074,348.741 86.974,348.526 86.855 C 347.552 86.314,338.931 86.093,338.429 86.595 M359.125 86.994 C 358.965 87.365,358.833 87.741,358.833 87.830 C 358.833 87.993,358.309 89.218,357.894 90.026 C 357.769 90.269,357.667 90.581,357.667 90.718 C 357.667 90.856,357.526 91.257,357.355 91.609 C 356.807 92.737,356.500 93.505,356.500 93.751 C 356.500 93.882,356.350 94.257,356.167 94.583 C 355.983 94.910,355.833 95.290,355.833 95.428 C 355.833 95.566,355.723 95.847,355.588 96.053 C 355.453 96.259,355.316 96.575,355.284 96.756 C 355.252 96.936,355.100 97.374,354.946 97.729 C 354.792 98.084,354.667 98.393,354.667 98.417 C 354.667 98.440,354.541 98.750,354.387 99.105 C 354.234 99.460,354.082 99.897,354.050 100.078 C 354.017 100.258,353.892 100.558,353.771 100.744 C 352.911 102.067,353.806 103.858,354.917 103.039 C 355.151 102.866,355.833 101.564,355.833 101.290 C 355.833 101.165,355.983 100.752,356.167 100.373 C 356.350 99.993,356.500 99.571,356.500 99.435 C 356.500 99.298,356.569 99.144,356.654 99.091 C 356.738 99.039,356.857 98.772,356.917 98.498 L 357.026 98.000 360.417 98.000 L 363.807 98.000 364.002 98.625 C 364.108 98.969,364.339 99.568,364.515 99.957 C 364.690 100.345,364.833 100.729,364.833 100.810 C 364.833 101.073,365.534 102.575,365.796 102.875 C 366.129 103.255,366.875 103.248,367.224 102.862 C 367.672 102.367,367.651 102.262,366.492 99.292 C 366.145 98.401,366.045 98.143,365.256 96.083 C 365.010 95.442,364.664 94.560,364.488 94.125 C 364.311 93.690,364.022 92.977,363.845 92.542 C 363.463 91.601,362.400 88.858,362.052 87.917 C 361.500 86.424,361.497 86.421,360.411 86.368 L 359.417 86.320 359.125 86.994 M371.250 86.444 C 371.067 86.496,370.863 86.624,370.798 86.727 C 370.534 87.147,370.643 102.273,370.912 102.496 C 371.397 102.898,380.236 102.636,381.195 102.191 C 383.188 101.266,383.333 100.742,383.333 94.498 C 383.333 86.614,383.247 86.520,375.833 86.411 C 373.496 86.377,371.433 86.392,371.250 86.444 M233.901 87.001 C 231.282 88.272,230.681 89.716,230.675 94.750 C 230.669 99.044,231.135 100.552,232.814 101.679 C 233.146 101.901,233.516 102.177,233.637 102.291 C 233.758 102.406,233.983 102.501,234.137 102.503 C 234.291 102.504,234.717 102.613,235.083 102.745 C 237.857 103.744,241.614 102.278,242.774 99.744 C 243.530 98.093,243.779 92.294,243.171 90.500 C 242.641 88.936,241.229 87.233,240.333 87.078 C 240.287 87.070,239.960 86.936,239.605 86.782 C 238.417 86.263,235.163 86.389,233.901 87.001 M247.506 86.822 C 247.394 87.031,247.333 89.814,247.333 94.710 L 247.333 102.275 247.752 102.669 C 248.101 102.996,248.248 103.036,248.624 102.904 C 249.463 102.608,249.494 102.371,249.503 96.167 L 249.511 90.417 249.917 90.917 C 250.141 91.192,250.439 91.548,250.579 91.708 C 250.719 91.869,250.833 92.038,250.833 92.085 C 250.833 92.169,251.765 93.535,252.367 94.333 C 253.507 95.844,255.500 98.701,255.500 98.824 C 255.500 98.906,255.556 98.997,255.625 99.028 C 255.831 99.119,256.752 100.407,256.708 100.542 C 256.685 100.610,256.728 100.667,256.803 100.667 C 256.877 100.667,257.107 100.967,257.313 101.333 C 257.519 101.700,257.740 102.000,257.804 102.000 C 257.869 102.000,257.995 102.167,258.085 102.371 C 258.355 102.978,259.251 103.135,259.754 102.663 L 260.167 102.275 260.167 94.812 C 260.167 86.455,260.172 86.500,259.149 86.500 C 257.995 86.500,258.000 86.470,258.000 93.120 L 258.000 99.000 257.667 98.667 C 257.483 98.483,257.333 98.296,257.333 98.251 C 257.333 98.176,255.718 95.913,254.303 94.004 C 253.999 93.594,253.571 92.965,253.352 92.606 C 253.132 92.247,252.825 91.825,252.668 91.668 C 252.511 91.511,252.207 91.071,251.994 90.691 C 251.780 90.311,251.544 90.000,251.469 90.000 C 251.395 90.000,251.333 89.888,251.333 89.750 C 251.333 89.612,251.270 89.500,251.193 89.500 C 251.116 89.500,250.911 89.237,250.738 88.917 C 250.566 88.596,250.366 88.333,250.295 88.333 C 250.225 88.333,250.167 88.258,250.167 88.167 C 250.167 88.075,250.035 87.857,249.875 87.683 C 249.715 87.508,249.449 87.170,249.284 86.933 C 248.899 86.377,247.781 86.308,247.506 86.822 M311.057 86.700 C 310.849 87.021,310.784 101.849,310.988 102.384 C 311.204 102.954,311.863 103.128,312.419 102.763 L 312.837 102.490 312.793 94.537 L 312.750 86.583 311.973 86.533 C 311.471 86.501,311.147 86.559,311.057 86.700 M317.006 86.822 C 316.779 87.247,316.769 101.643,316.996 102.239 L 317.158 102.667 322.463 102.667 C 328.089 102.667,328.167 102.656,328.167 101.872 C 328.167 100.812,328.268 100.833,323.327 100.833 L 318.833 100.833 318.833 93.867 C 318.833 88.670,318.783 86.849,318.633 86.700 C 318.301 86.368,317.205 86.450,317.006 86.822 M332.339 86.822 C 331.990 87.476,332.114 102.400,332.471 102.724 C 332.906 103.118,333.597 103.072,333.907 102.630 C 334.248 102.142,334.305 87.038,333.967 86.700 C 333.634 86.368,332.539 86.450,332.339 86.822 M387.667 86.663 C 387.450 86.800,387.417 87.865,387.417 94.583 C 387.417 101.302,387.450 102.367,387.667 102.504 C 387.939 102.676,399.297 102.734,399.736 102.566 C 400.105 102.424,400.105 101.076,399.736 100.934 C 399.591 100.879,397.191 100.833,394.403 100.833 L 389.333 100.833 389.333 97.750 L 389.333 94.667 392.988 94.667 C 397.005 94.667,397.167 94.628,397.167 93.664 C 397.167 92.747,396.822 92.667,392.880 92.667 L 389.333 92.667 389.333 90.583 L 389.333 88.500 394.239 88.500 C 399.810 88.500,400.000 88.468,400.000 87.537 C 400.000 87.187,399.910 86.810,399.800 86.700 C 399.551 86.451,388.058 86.416,387.667 86.663 M180.853 88.714 C 181.967 89.216,182.026 89.539,181.968 94.795 C 181.913 99.767,181.886 99.920,181.021 100.291 C 180.155 100.662,178.560 100.833,175.969 100.833 L 173.333 100.833 173.333 94.566 L 173.333 88.300 176.792 88.371 C 179.514 88.428,180.378 88.501,180.853 88.714 M239.000 88.761 C 240.993 89.461,241.250 90.128,241.250 94.594 C 241.250 98.964,241.167 99.264,239.685 100.241 C 238.102 101.285,234.968 101.080,233.828 99.857 C 232.800 98.754,232.750 98.513,232.751 94.667 L 232.751 91.083 233.235 90.337 C 234.440 88.478,236.552 87.901,239.000 88.761 M347.084 88.591 C 348.814 89.041,348.750 88.818,348.750 94.429 C 348.750 100.970,349.015 100.650,343.458 100.792 L 340.167 100.876 340.167 94.605 L 340.167 88.333 343.132 88.333 C 345.267 88.333,346.373 88.405,347.084 88.591 M380.167 88.711 C 381.288 89.214,381.333 89.433,381.333 94.397 C 381.333 100.907,381.406 100.830,375.292 100.832 L 372.667 100.833 372.667 94.564 L 372.667 88.296 376.125 88.372 C 378.779 88.431,379.719 88.510,380.167 88.711 M301.761 88.676 C 303.223 88.936,303.278 88.963,303.567 89.573 C 304.621 91.793,303.630 92.505,299.318 92.627 L 296.167 92.716 296.167 90.608 L 296.167 88.500 298.469 88.500 C 299.736 88.500,301.217 88.579,301.761 88.676 M360.954 91.083 C 361.091 91.450,361.345 92.058,361.518 92.435 C 361.692 92.812,361.833 93.208,361.833 93.316 C 361.833 93.424,361.948 93.687,362.089 93.902 C 362.229 94.116,362.377 94.459,362.416 94.663 C 362.455 94.867,362.554 95.120,362.634 95.225 C 363.209 95.973,363.134 96.000,360.492 96.000 L 357.994 96.000 358.093 95.542 C 358.148 95.290,358.328 94.783,358.493 94.417 C 358.795 93.745,358.868 93.564,359.854 91.015 C 360.449 89.479,360.351 89.473,360.954 91.083 M194.361 91.594 C 194.529 91.967,194.667 92.355,194.667 92.456 C 194.667 92.557,194.772 92.852,194.902 93.111 C 195.031 93.371,195.302 93.996,195.504 94.500 C 195.706 95.004,195.938 95.548,196.020 95.708 C 196.159 95.980,195.992 96.000,193.575 96.000 C 192.148 96.000,191.007 95.944,191.041 95.875 C 191.345 95.244,191.684 94.457,191.919 93.833 C 192.314 92.788,192.816 91.558,193.231 90.621 L 193.583 89.825 193.819 90.371 C 193.949 90.671,194.193 91.222,194.361 91.594 M284.167 90.271 C 284.167 90.408,284.346 90.912,284.564 91.390 C 284.783 91.868,285.077 92.595,285.217 93.005 C 285.357 93.415,285.590 93.975,285.735 94.250 C 285.880 94.525,285.998 94.877,285.999 95.032 C 286.000 95.187,286.075 95.360,286.167 95.417 C 286.865 95.848,286.280 96.000,283.917 96.000 C 282.587 96.000,281.500 95.944,281.500 95.875 C 281.500 95.674,282.084 94.193,282.215 94.063 C 282.280 93.998,282.334 93.788,282.334 93.597 C 282.334 93.406,282.484 93.004,282.667 92.704 C 282.850 92.404,283.000 92.078,283.000 91.979 C 283.000 91.881,283.102 91.564,283.227 91.275 C 283.351 90.986,283.539 90.540,283.644 90.282 C 283.836 89.812,284.167 89.804,284.167 90.271 M303.876 95.075 C 304.552 95.396,304.833 96.200,304.833 97.810 C 304.833 100.392,304.336 100.664,299.375 100.791 L 296.167 100.873 296.167 97.744 L 296.167 94.616 299.750 94.717 C 302.470 94.794,303.465 94.880,303.876 95.075 " stroke="none" fill="#fbfcfb" fill-rule="evenodd"></path><path id="path3" d="M70.034 39.623 C 70.649 39.655,71.699 39.656,72.368 39.624 C 73.036 39.592,72.533 39.566,71.250 39.566 C 69.967 39.565,69.420 39.591,70.034 39.623 M76.906 51.000 C 76.906 53.521,76.930 54.552,76.958 53.292 C 76.986 52.031,76.986 49.969,76.958 48.708 C 76.930 47.448,76.906 48.479,76.906 51.000 M51.868 56.790 C 52.482 56.822,53.532 56.822,54.201 56.791 C 54.870 56.759,54.367 56.733,53.083 56.732 C 51.800 56.732,51.253 56.758,51.868 56.790 " stroke="none" fill="#acf4f6" fill-rule="evenodd"></path><path id="path4" d="M88.201 33.123 C 88.816 33.155,89.866 33.156,90.534 33.124 C 91.203 33.092,90.700 33.066,89.417 33.066 C 88.133 33.065,87.586 33.091,88.201 33.123 M61.215 56.790 C 61.838 56.823,62.813 56.822,63.382 56.790 C 63.951 56.757,63.442 56.731,62.250 56.731 C 61.058 56.732,60.593 56.758,61.215 56.790 M88.216 56.957 C 88.931 56.989,90.056 56.988,90.716 56.957 C 91.376 56.925,90.792 56.900,89.417 56.900 C 88.042 56.900,87.501 56.926,88.216 56.957 M173.550 102.791 C 174.356 102.821,175.631 102.821,176.383 102.791 C 177.135 102.760,176.475 102.735,174.917 102.735 C 173.358 102.735,172.743 102.760,173.550 102.791 M221.214 102.790 C 221.745 102.823,222.570 102.823,223.048 102.789 C 223.526 102.756,223.092 102.729,222.083 102.729 C 221.075 102.729,220.684 102.757,221.214 102.790 M296.466 102.791 C 297.227 102.822,298.427 102.822,299.133 102.790 C 299.839 102.759,299.217 102.734,297.750 102.734 C 296.283 102.734,295.706 102.760,296.466 102.791 M320.042 102.791 C 321.302 102.820,323.365 102.820,324.625 102.791 C 325.885 102.763,324.854 102.740,322.333 102.740 C 319.813 102.740,318.781 102.763,320.042 102.791 M340.383 102.791 C 341.190 102.821,342.465 102.821,343.217 102.791 C 343.968 102.760,343.308 102.735,341.750 102.735 C 340.192 102.735,339.577 102.760,340.383 102.791 M372.958 102.791 C 373.715 102.822,374.952 102.822,375.708 102.791 C 376.465 102.760,375.846 102.735,374.333 102.735 C 372.821 102.735,372.202 102.760,372.958 102.791 M390.969 102.791 C 392.464 102.819,394.864 102.819,396.302 102.791 C 397.740 102.764,396.517 102.741,393.583 102.741 C 390.650 102.741,389.473 102.764,390.969 102.791 " stroke="none" fill="#7cfc7c" fill-rule="evenodd"></path><path id="path5" d="M56.578 46.750 C 56.578 51.608,56.599 53.572,56.625 51.113 C 56.651 48.655,56.651 44.680,56.625 42.280 C 56.599 39.880,56.578 41.892,56.578 46.750 M74.743 48.000 C 74.743 51.896,74.765 53.490,74.791 51.542 C 74.818 49.594,74.818 46.406,74.791 44.458 C 74.765 42.510,74.743 44.104,74.743 48.000 M79.208 45.124 C 79.827 45.156,80.840 45.156,81.458 45.124 C 82.077 45.092,81.571 45.065,80.333 45.065 C 79.096 45.065,78.590 45.092,79.208 45.124 " stroke="none" fill="#c9faf5" fill-rule="evenodd"></path><path id="path6" d="M61.034 29.290 C 61.649 29.322,62.699 29.322,63.368 29.291 C 64.036 29.259,63.533 29.233,62.250 29.232 C 60.967 29.232,60.420 29.258,61.034 29.290 M58.746 43.000 C 58.746 50.012,58.766 52.881,58.792 49.375 C 58.817 45.869,58.817 40.131,58.792 36.625 C 58.766 33.119,58.746 35.987,58.746 43.000 M297.383 94.791 C 298.097 94.822,299.222 94.822,299.883 94.790 C 300.543 94.759,299.958 94.733,298.583 94.733 C 297.208 94.734,296.668 94.759,297.383 94.791 M390.958 94.791 C 391.898 94.821,393.435 94.821,394.375 94.791 C 395.315 94.761,394.546 94.737,392.667 94.737 C 390.787 94.737,390.019 94.761,390.958 94.791 " stroke="none" fill="#bcfcbc" fill-rule="evenodd"></path><path id="path7" d="M67.743 48.083 C 67.743 52.117,67.765 53.743,67.792 51.697 C 67.818 49.651,67.818 46.351,67.791 44.364 C 67.765 42.376,67.743 44.050,67.743 48.083 M83.906 50.917 C 83.906 53.392,83.929 54.427,83.958 53.218 C 83.986 52.009,83.986 49.984,83.958 48.718 C 83.930 47.452,83.906 48.442,83.906 50.917 M70.034 56.623 C 70.649 56.655,71.699 56.656,72.368 56.624 C 73.036 56.592,72.533 56.566,71.250 56.566 C 69.967 56.565,69.420 56.591,70.034 56.623 " stroke="none" fill="#e1fcfc" fill-rule="evenodd"></path><path id="path8" d="M92.912 45.000 C 92.912 51.004,92.933 53.460,92.958 50.458 C 92.984 47.456,92.984 42.544,92.958 39.542 C 92.933 36.540,92.912 38.996,92.912 45.000 " stroke="none" fill="#dcfcdc" fill-rule="evenodd"></path></g></svg>